<svg width="853" height="540" viewBox="0 0 853 540" fill="none" xmlns="http://www.w3.org/2000/svg">
<g clip-path="url(#clip0)">
<rect width="853" height="540" fill="white"/>
<rect width="853" height="540" fill="#0046AA"/>
<path d="M552.47 146.214L619.104 107.743L619.98 529L553.347 529L552.47 146.214Z" fill="#0069FF"/>
<path d="M552.674 146.641L480.505 104.974L480.505 530.5H552.674V146.641Z" fill="#003F98"/>
<path d="M619.318 107.977L546.611 66L480 104.458L552.707 146.435L619.318 107.977Z" fill="#008EFF"/>
<rect x="0.866025" width="49.363" height="48.7456" rx="5.5939" transform="matrix(-0.866025 -0.5 -0.866025 0.5 591.438 105.967)" stroke="#A2FFE9"/>
<rect x="0.866025" width="58.3864" height="57.6538" rx="5.5939" transform="matrix(-0.866025 -0.5 -0.866025 0.5 599.199 105.994)" stroke="#A2FFE9"/>
<rect x="0.866025" width="70.8565" height="69.9647" rx="5.5939" transform="matrix(-0.866025 -0.5 -0.866025 0.5 609.935 106.034)" stroke="#A2FFE9"/>
<path d="M652.47 160.214L719.104 121.743L719.98 543L653.347 543L652.47 160.214Z" fill="#0069FF"/>
<path d="M652.674 160.641L580.505 118.974L580.505 544.5H652.674V160.641Z" fill="#003F98"/>
<path d="M719.318 121.977L646.611 80L580 118.458L652.707 160.435L719.318 121.977Z" fill="#008EFF"/>
<rect x="0.866025" width="49.363" height="48.7456" rx="5.5939" transform="matrix(-0.866025 -0.5 -0.866025 0.5 691.438 119.967)" stroke="#A2FFE9"/>
<rect x="0.866025" width="58.3864" height="57.6538" rx="5.5939" transform="matrix(-0.866025 -0.5 -0.866025 0.5 699.199 119.994)" stroke="#A2FFE9"/>
<rect x="0.866025" width="70.8565" height="69.9647" rx="5.5939" transform="matrix(-0.866025 -0.5 -0.866025 0.5 709.935 120.034)" stroke="#A2FFE9"/>
<path d="M682.371 485.973L825.228 403.495L827.107 545L684.25 545L682.371 485.973Z" fill="#0069FF"/>
<path d="M682.808 486.888L528.083 397.558L528.083 546.5L682.808 546.5V486.888Z" fill="#003F98"/>
<path d="M825.688 403.996L669.81 314L527 396.451L682.878 486.448L825.688 403.996Z" fill="#008EFF"/>
<path d="M623 345.196C623 344.409 622.447 343.451 621.765 343.057L402.668 216.582C402.365 216.406 402.072 216.366 401.846 216.469L397.129 218.613C396.855 218.738 396.705 219.059 396.718 219.49L400.458 343.539C400.481 344.309 401.012 345.218 401.667 345.612L617.656 475.484C618.001 475.691 618.333 475.725 618.572 475.575L622.656 473.025C622.877 472.887 623 472.604 623 472.236L623 345.196Z" fill="#A4C9FF"/>
<path d="M623 345.196C623 344.409 622.447 343.451 621.765 343.057L567.799 311.905L560.899 307.922L557.449 305.93L556.31 305.273C555.939 305.059 555.588 305.049 555.354 305.245L551.975 308.076C551.795 308.227 551.697 308.489 551.697 308.817L551.697 434.863C551.697 435.659 552.261 436.626 552.949 437.012L563.773 443.085L617.656 475.484C618.001 475.691 618.333 475.725 618.572 475.575L622.656 473.025C622.877 472.887 623 472.604 623 472.236L623 345.196Z" fill="url(#paint0_linear)"/>
<rect width="256.922" height="129.601" rx="1.42594" transform="matrix(-0.866025 -0.5 -2.20305e-08 1 619 346.77)" fill="#073FA0"/>
<rect width="256.922" height="129.601" rx="1.42594" transform="matrix(-0.866025 -0.5 -2.20305e-08 1 619 346.77)" fill="url(#paint1_linear)"/>
<rect x="-0.433013" y="0.25" width="106.937" height="49.5482" rx="2.35187" transform="matrix(-0.866025 -0.5 -2.20305e-08 1 544.135 328.501)" stroke="#7BB1FE"/>
<g style="mix-blend-mode:overlay">
<rect width="107.937" height="50.5482" rx="2.85187" transform="matrix(-0.866025 -0.5 -2.20305e-08 1 542.943 329.717)" fill="white" fill-opacity="0.5"/>
</g>
<rect width="3.48156" height="13.7789" rx="1" transform="matrix(-0.866025 -0.5 -2.20305e-08 1 535.697 340.372)" fill="#10C5FF"/>
<rect width="3.48156" height="19.2365" rx="1" transform="matrix(-0.866025 -0.5 -2.20305e-08 1 531.697 332.592)" fill="#10C5FF"/>
<rect width="3.48156" height="23.4749" rx="1" transform="matrix(-0.866025 -0.5 -2.20305e-08 1 527.697 325.812)" fill="#10C5FF"/>
<rect width="3.48156" height="16.8537" rx="1" transform="matrix(-0.866025 -0.5 -2.20305e-08 1 523.697 329.671)" fill="white"/>
<rect width="3.48156" height="9.56856" rx="1" transform="matrix(-0.866025 -0.5 -2.20305e-08 1 519.697 334.335)" fill="#10C5FF"/>
<rect width="3.48156" height="17.3597" rx="1" transform="matrix(-0.866025 -0.5 -2.20305e-08 1 515.697 323.259)" fill="#10C5FF"/>
<rect x="-0.433013" y="0.25" width="38.5264" height="38.5264" rx="2.35187" transform="matrix(-0.866025 -0.5 -2.20305e-08 1 544.135 382.85)" stroke="#7BB1FE"/>
<rect x="-0.433013" y="0.25" width="74.6322" height="38.5264" rx="2.35187" transform="matrix(-0.866025 -0.5 -2.20305e-08 1 469.09 339.523)" stroke="#7BB1FE"/>
<rect x="-0.433013" y="0.25" width="49.5482" height="49.5482" rx="2.5" transform="matrix(-0.866025 -0.5 -2.20305e-08 1 447.367 272.632)" stroke="#A2C8FF"/>
<path d="M619 348.196C619 347.409 618.447 346.451 617.765 346.057L551.855 308.004L551.855 437.605L617.765 475.658C618.447 476.052 619 475.733 619 474.945L619 348.196Z" fill="#0046AA"/>
<path d="M619 348.196C619 347.409 618.447 346.451 617.765 346.057L551.855 308.004L551.855 437.605L617.765 475.658C618.447 476.052 619 475.733 619 474.945L619 348.196Z" fill="url(#paint2_linear)"/>
<path d="M613.405 350.714C613.405 350.32 613.128 349.841 612.787 349.644L607.439 346.557C607.098 346.36 606.822 346.519 606.822 346.913L606.822 353.088C606.822 353.482 607.098 353.961 607.439 354.158L612.787 357.245C613.128 357.442 613.405 357.283 613.405 356.889L613.405 350.714Z" fill="white"/>
<path d="M603.859 347.103C603.859 346.709 603.583 346.23 603.242 346.034L601.185 344.846C600.844 344.649 600.568 344.809 600.568 345.203L600.568 347.577C600.568 347.971 600.844 348.45 601.185 348.647L603.242 349.834C603.583 350.031 603.859 349.871 603.859 349.478L603.859 347.103Z" fill="white"/>
<path d="M597.606 343.492C597.606 343.099 597.329 342.62 596.988 342.423L594.932 341.236C594.591 341.039 594.314 341.198 594.314 341.592L594.314 343.967C594.314 344.361 594.591 344.839 594.932 345.036L596.988 346.224C597.329 346.42 597.606 346.261 597.606 345.867L597.606 343.492Z" fill="white"/>
<path d="M591.352 339.882C591.352 339.488 591.076 339.009 590.735 338.812L588.678 337.625C588.337 337.428 588.061 337.588 588.061 337.981L588.061 340.356C588.061 340.75 588.337 341.229 588.678 341.426L590.735 342.613C591.076 342.81 591.352 342.65 591.352 342.256L591.352 339.882Z" fill="white"/>
<path d="M585.098 336.271C585.098 335.877 584.822 335.399 584.481 335.202L582.424 334.014C582.083 333.818 581.807 333.977 581.807 334.371L581.807 336.746C581.807 337.139 582.083 337.618 582.424 337.815L584.481 339.002C584.822 339.199 585.098 339.04 585.098 338.646L585.098 336.271Z" fill="white"/>
<path d="M619 417.462L551.855 378.695L551.855 396.938L619 435.705L619 417.462Z" fill="#4A8AFD"/>
<rect width="38.8206" height="5.97239" rx="0.712968" transform="matrix(-0.866025 -0.5 -2.20305e-08 1 597.653 359.149)" fill="white"/>
<rect width="5.97239" height="5.97239" rx="0.712968" transform="matrix(-0.866025 -0.5 -2.20305e-08 1 607.48 364.823)" fill="white"/>
<rect width="68.5242" height="3.07329" rx="0.712968" transform="matrix(-0.866025 -0.5 -2.20305e-08 1 531.697 305.572)" fill="white"/>
<rect width="40.4145" height="3.07329" rx="0.712968" transform="matrix(-0.866025 -0.5 -2.20305e-08 1 531.697 310.572)" fill="white"/>
<rect x="-0.433013" y="0.25" width="9.54218" height="9.26166" rx="1.5" transform="matrix(-0.866025 -0.5 -2.20305e-08 1 544.135 312.918)" stroke="#7BB1FE"/>
<rect width="25.3366" height="2.52053" rx="0.712968" transform="matrix(-0.866025 -0.5 -2.20305e-08 1 456.697 337.978)" fill="white"/>
<rect width="13.0254" height="2.52053" rx="0.712968" transform="matrix(-0.866025 -0.5 -2.20305e-08 1 456.697 342.078)" fill="white"/>
<rect width="5.7064" height="5.55456" rx="1" transform="matrix(-0.866025 -0.5 -2.20305e-08 1 463.697 341.985)" fill="#FEC16B"/>
<rect width="38.8206" height="5.97239" rx="0.712968" transform="matrix(-0.866025 -0.5 -2.20305e-08 1 597.653 376.524)" fill="white"/>
<rect width="5.97239" height="5.97239" rx="0.712968" transform="matrix(-0.866025 -0.5 -2.20305e-08 1 607.48 382.197)" fill="white"/>
<rect width="38.8206" height="5.97239" rx="0.712968" transform="matrix(-0.866025 -0.5 -2.20305e-08 1 597.653 393.898)" fill="white"/>
<rect width="5.97239" height="5.97239" rx="0.712968" transform="matrix(-0.866025 -0.5 -2.20305e-08 1 607.48 399.572)" fill="white"/>
<rect width="38.8206" height="5.97239" rx="0.712968" transform="matrix(-0.866025 -0.5 -2.20305e-08 1 597.653 411.272)" fill="white"/>
<rect width="5.97239" height="5.97239" rx="0.712968" transform="matrix(-0.866025 -0.5 -2.20305e-08 1 607.48 416.946)" fill="white"/>
<rect width="38.8206" height="5.9724" rx="0.712968" transform="matrix(-0.866025 -0.5 -2.20305e-08 1 597.62 428.41)" fill="white"/>
<rect width="5.97239" height="5.9724" rx="0.712968" transform="matrix(-0.866025 -0.5 -2.20305e-08 1 607.48 434.32)" fill="white"/>
<path d="M410.323 277.029C410.323 287.209 417.47 299.588 426.287 304.678C435.103 309.768 442.25 305.642 442.25 295.462C442.25 285.281 435.103 272.902 426.287 267.812C417.47 262.722 410.323 266.848 410.323 277.029ZM437.109 292.493C437.109 299.395 432.264 302.192 426.287 298.742C420.31 295.291 415.465 286.899 415.465 279.997C415.465 273.095 420.31 270.298 426.287 273.749C432.264 277.2 437.109 285.592 437.109 292.493Z" fill="white"/>
<rect x="-0.433013" y="0.25" width="38.5264" height="38.5264" rx="2.35187" transform="matrix(-0.866025 -0.5 -2.20305e-08 1 506.942 361.376)" stroke="#7BB1FE"/>
<path d="M478.127 364.443C478.127 362.571 478.446 360.902 479.066 359.531C479.687 358.16 480.596 357.114 481.742 356.452C482.888 355.791 484.249 355.526 485.746 355.675C487.244 355.823 488.849 356.381 490.47 357.317L490.47 371.569L478.127 364.443Z" fill="white"/>
<path d="M490.47 357.317C492.911 358.726 495.297 360.94 497.327 363.678C499.357 366.416 500.939 369.555 501.873 372.699C502.807 375.842 503.052 378.849 502.575 381.339C502.099 383.829 500.923 385.689 499.197 386.686C497.471 387.683 495.272 387.77 492.878 386.938C490.483 386.105 488.002 384.39 485.746 382.01C483.491 379.629 481.563 376.689 480.207 373.562C478.851 370.435 478.127 367.262 478.127 364.443L490.47 371.569L490.47 357.317Z" fill="#FEC16B"/>
<path d="M490.47 357.317C493.087 358.828 495.637 361.261 497.751 364.265C499.864 367.268 501.432 370.686 502.228 374.025C503.024 377.364 503.006 380.451 502.178 382.84C501.349 385.229 499.753 386.796 497.619 387.315L490.47 371.569L490.47 357.317Z" fill="#86DEC9"/>
<path d="M518.626 377.571C519.773 376.909 521.133 376.645 522.631 376.793C524.128 376.942 525.733 377.5 527.354 378.436C528.975 379.371 530.58 380.667 532.078 382.247C533.575 383.828 534.936 385.664 536.082 387.649L527.354 392.688L518.626 377.571Z" fill="white"/>
<path d="M527.354 378.436C530.295 380.133 533.139 382.988 535.374 386.484C537.609 389.981 539.089 393.891 539.547 397.509C540.004 401.128 539.41 404.217 537.87 406.221C536.33 408.225 533.947 409.012 531.149 408.441C528.35 407.869 525.321 405.976 522.607 403.103C519.893 400.23 517.671 396.565 516.343 392.769C515.014 388.973 514.666 385.294 515.361 382.396C516.056 379.498 517.748 377.57 520.133 376.96L527.354 392.688L527.354 378.436Z" fill="#4A8AFD"/>
<path d="M527.354 378.436C529.972 379.947 532.522 382.38 534.635 385.383C536.749 388.387 538.317 391.805 539.113 395.144C539.909 398.483 539.891 401.57 539.062 403.959C538.234 406.348 536.637 407.915 534.504 408.433L527.354 392.688L527.354 378.436Z" fill="#86DEC9"/>
<path d="M410.323 277.029C410.323 274.608 410.736 272.449 411.539 270.676C412.341 268.903 413.517 267.55 414.999 266.694C416.481 265.838 418.241 265.497 420.178 265.688C422.115 265.88 424.19 266.602 426.287 267.812L426.287 273.749C424.866 272.928 423.458 272.439 422.145 272.309C420.832 272.179 419.639 272.411 418.634 272.991C417.629 273.571 416.832 274.488 416.288 275.69C415.745 276.893 415.465 278.356 415.465 279.997L410.323 277.029Z" fill="#7BB1FE"/>
<path d="M463.697 372.052L409.697 340.875L409.697 329.323C414.312 331.988 414.774 335.968 418.928 338.366C423.082 340.764 425.009 335.688 429.543 338.306C435.543 341.77 435.543 345.896 438.774 347.761C442.005 349.626 445.697 343.094 453.543 347.624C459.543 351.088 463.697 356.787 463.697 356.787L463.697 372.052Z" fill="url(#paint3_linear)"/>
<g filter="url(#filter0_dddddd)">
<path fill-rule="evenodd" clip-rule="evenodd" d="M474.558 312.976C473.515 311.164 472.1 309.667 470.624 308.814C469.148 307.962 467.733 307.825 466.69 308.433C465.647 309.04 465.061 310.342 465.061 312.051L466.257 312.742C466.257 311.397 466.718 310.374 467.537 309.896C468.356 309.419 469.467 309.527 470.624 310.195C471.781 310.864 472.892 312.038 473.711 313.461C474.53 314.884 474.991 316.439 474.991 317.784L476.187 318.475C476.187 316.765 475.601 314.787 474.558 312.976Z" fill="#A2C8FF"/>
<path fill-rule="evenodd" clip-rule="evenodd" d="M471.186 309.83L471.186 300.854L469.99 300.163L469.99 309.139L471.186 309.83Z" fill="#A2C8FF"/>
<ellipse rx="4.23599" ry="4.23384" transform="matrix(-0.866025 -0.5 -2.20305e-08 1 470.599 300.515)" fill="#FEC16B"/>
<ellipse rx="4.23599" ry="4.23384" transform="matrix(-0.866025 -0.5 -2.20305e-08 1 476.029 318.383)" fill="#86DEC9"/>
<ellipse rx="4.23599" ry="4.23384" transform="matrix(-0.866025 -0.5 -2.20305e-08 1 465.366 312.227)" fill="white"/>
</g>
<g filter="url(#filter1_dddddd)">
<path fill-rule="evenodd" clip-rule="evenodd" d="M491.69 317.375C492.733 319.187 494.148 320.684 495.624 321.537C497.1 322.389 498.515 322.526 499.558 321.918C500.601 321.311 501.187 320.009 501.187 318.3L499.991 317.609C499.991 318.954 499.53 319.977 498.711 320.455C497.892 320.932 496.781 320.824 495.624 320.156C494.467 319.487 493.356 318.313 492.537 316.89C491.718 315.467 491.257 313.912 491.257 312.567L490.061 311.876C490.061 313.586 490.647 315.564 491.69 317.375Z" fill="#A2C8FF"/>
<path fill-rule="evenodd" clip-rule="evenodd" d="M495.062 320.521L495.062 329.497L496.258 330.188L496.258 321.212L495.062 320.521Z" fill="#A2C8FF"/>
<ellipse rx="4.23599" ry="4.23384" transform="matrix(-0.866025 -0.5 -2.20305e-08 1 495.599 330.206)" fill="#FEC16B"/>
<ellipse rx="4.23599" ry="4.23384" transform="matrix(-0.866025 -0.5 -2.20305e-08 1 502.029 317.206)" fill="#86DEC9"/>
<ellipse rx="4.23599" ry="4.23384" transform="matrix(-0.866025 -0.5 -2.20305e-08 1 490.692 311.206)" fill="white"/>
</g>
<path d="M623 212.196C623 211.409 622.447 210.451 621.765 210.057L402.668 83.5815C402.365 83.4063 402.072 83.3663 401.846 83.4692L397.129 85.6132C396.855 85.7375 396.705 86.0586 396.718 86.4895L400.458 210.539C400.481 211.309 401.012 212.218 401.667 212.612L617.656 342.484C618.001 342.691 618.333 342.725 618.572 342.575L622.656 340.025C622.877 339.887 623 339.604 623 339.235L623 212.196Z" fill="#A4C9FF"/>
<rect width="256.922" height="129.601" rx="1.42594" transform="matrix(-0.866025 -0.5 -2.20305e-08 1 619 213.77)" fill="#073FA0"/>
<rect width="256.922" height="129.601" rx="1.42594" transform="matrix(-0.866025 -0.5 -2.20305e-08 1 619 213.77)" fill="url(#paint4_linear)"/>
<g style="mix-blend-mode:overlay">
<rect width="39.2598" height="38.7971" rx="2.85187" transform="matrix(-0.866025 -0.5 -2.20305e-08 1 543 251.969)" fill="white" fill-opacity="0.5"/>
</g>
<g style="mix-blend-mode:overlay">
<rect width="39.2598" height="38.7971" rx="2.85187" transform="matrix(-0.866025 -0.5 -2.20305e-08 1 506 229.631)" fill="white" fill-opacity="0.5"/>
</g>
<rect width="3.48156" height="13.7789" rx="1" transform="matrix(-0.866025 -0.5 -2.20305e-08 1 589 293.854)" fill="#86DEC9"/>
<rect width="3.48156" height="19.2365" rx="1" transform="matrix(-0.866025 -0.5 -2.20305e-08 1 584.985 286.075)" fill="#86DEC9"/>
<rect width="3.48156" height="23.4749" rx="1" transform="matrix(-0.866025 -0.5 -2.20305e-08 1 580.971 279.294)" fill="#86DEC9"/>
<rect width="3.48156" height="16.8537" rx="1" transform="matrix(-0.866025 -0.5 -2.20305e-08 1 576.956 283.153)" fill="white"/>
<rect width="3.48156" height="9.56856" rx="1" transform="matrix(-0.866025 -0.5 -2.20305e-08 1 572.941 287.817)" fill="#86DEC9"/>
<rect width="3.48156" height="17.3597" rx="1" transform="matrix(-0.866025 -0.5 -2.20305e-08 1 568.927 276.741)" fill="#86DEC9"/>
<rect x="-0.433013" y="0.25" width="38.5264" height="38.5264" rx="2.35187" transform="matrix(-0.866025 -0.5 -2.20305e-08 1 544.135 249.851)" stroke="#7BB1FE"/>
<rect x="-0.433013" y="0.25" width="74.8988" height="39.4077" rx="2.35187" transform="matrix(-0.866025 -0.5 -2.20305e-08 1 615.691 290.852)" stroke="#7BB1FE"/>
<rect x="-0.433013" y="0.25" width="74.6322" height="38.5264" rx="2.35187" transform="matrix(-0.866025 -0.5 -2.20305e-08 1 469.09 206.523)" stroke="#7BB1FE"/>
<rect x="-0.433013" y="0.25" width="49.5482" height="49.5482" rx="2.5" transform="matrix(-0.866025 -0.5 -2.20305e-08 1 447.367 139.632)" stroke="#A2C8FF"/>
<rect x="-0.433013" y="0.25" width="49.5482" height="49.5482" rx="2.5" transform="matrix(-0.866025 -0.5 -2.20305e-08 1 544.192 196.058)" stroke="#A2C8FF"/>
<rect x="-0.433013" y="0.25" width="49.5482" height="49.5482" rx="2.5" transform="matrix(-0.866025 -0.5 -2.20305e-08 1 495.192 167.058)" stroke="#A2C8FF"/>
<path d="M610 218.055C610 217.662 609.724 217.183 609.383 216.986L604.035 213.898C603.694 213.701 603.417 213.861 603.417 214.255L603.417 220.43C603.417 220.824 603.694 221.303 604.035 221.5L609.383 224.587C609.724 224.784 610 224.624 610 224.231L610 218.055Z" fill="white"/>
<path d="M600.455 214.444C600.455 214.05 600.179 213.571 599.838 213.375L597.781 212.187C597.44 211.99 597.164 212.15 597.164 212.544L597.164 214.918C597.164 215.312 597.44 215.791 597.781 215.988L599.838 217.175C600.179 217.372 600.455 217.212 600.455 216.819L600.455 214.444Z" fill="white"/>
<path d="M426 113.444C426 113.05 425.724 112.571 425.383 112.375L423.326 111.187C422.985 110.99 422.709 111.15 422.709 111.544L422.709 113.918C422.709 114.312 422.985 114.791 423.326 114.988L425.383 116.175C425.724 116.372 426 116.212 426 115.819L426 113.444Z" fill="white"/>
<path d="M594.201 210.835C594.201 210.441 593.925 209.962 593.584 209.765L591.527 208.578C591.186 208.381 590.91 208.541 590.91 208.934L590.91 211.309C590.91 211.703 591.186 212.182 591.527 212.378L593.584 213.566C593.925 213.763 594.201 213.603 594.201 213.209L594.201 210.835Z" fill="white"/>
<path d="M419.746 109.835C419.746 109.441 419.47 108.962 419.129 108.765L417.072 107.578C416.731 107.381 416.455 107.541 416.455 107.934L416.455 110.309C416.455 110.703 416.731 111.182 417.072 111.378L419.129 112.566C419.47 112.763 419.746 112.603 419.746 112.209L419.746 109.835Z" fill="white"/>
<path d="M587.947 207.223C587.947 206.83 587.671 206.351 587.33 206.154L585.273 204.967C584.932 204.77 584.656 204.929 584.656 205.323L584.656 207.698C584.656 208.091 584.932 208.57 585.273 208.767L587.33 209.955C587.671 210.151 587.947 209.992 587.947 209.598L587.947 207.223Z" fill="white"/>
<path d="M413.492 106.223C413.492 105.83 413.216 105.351 412.875 105.154L410.818 103.967C410.477 103.77 410.201 103.929 410.201 104.323L410.201 106.698C410.201 107.091 410.477 107.57 410.818 107.767L412.875 108.955C413.216 109.151 413.492 108.992 413.492 108.598L413.492 106.223Z" fill="white"/>
<path d="M581.694 203.614C581.694 203.22 581.418 202.741 581.077 202.545L579.02 201.357C578.679 201.16 578.403 201.32 578.403 201.714L578.403 204.088C578.403 204.482 578.679 204.961 579.02 205.158L581.077 206.345C581.418 206.542 581.694 206.382 581.694 205.989L581.694 203.614Z" fill="white"/>
<path d="M407.239 102.614C407.239 102.22 406.963 101.741 406.622 101.545L404.565 100.357C404.224 100.16 403.948 100.32 403.948 100.714L403.948 103.088C403.948 103.482 404.224 103.961 404.565 104.158L406.622 105.345C406.963 105.542 407.239 105.382 407.239 104.989L407.239 102.614Z" fill="white"/>
<rect width="25.3366" height="2.52053" rx="0.712968" transform="matrix(-0.866025 -0.5 -2.20305e-08 1 456.697 204.978)" fill="white"/>
<rect width="13.0254" height="2.52053" rx="0.712968" transform="matrix(-0.866025 -0.5 -2.20305e-08 1 456.697 209.078)" fill="white"/>
<rect width="5.7064" height="5.55456" rx="1" transform="matrix(-0.866025 -0.5 -2.20305e-08 1 463.697 208.985)" fill="#FEC16B"/>
<path d="M410.323 144.028C410.323 154.208 417.47 166.587 426.287 171.677C435.103 176.768 442.25 172.641 442.25 162.461C442.25 152.281 435.103 139.902 426.287 134.811C417.47 129.721 410.323 133.848 410.323 144.028ZM437.109 159.493C437.109 166.394 432.263 169.192 426.287 165.741C420.31 162.29 415.464 153.898 415.464 146.996C415.464 140.095 420.31 137.297 426.287 140.748C432.263 144.199 437.109 152.591 437.109 159.493Z" fill="white"/>
<path d="M507.148 200.454C507.148 210.634 514.295 223.013 523.112 228.103C531.928 233.193 539.075 229.067 539.075 218.887C539.075 208.706 531.928 196.327 523.112 191.237C514.295 186.147 507.148 190.273 507.148 200.454ZM533.934 215.918C533.934 222.82 529.089 225.617 523.112 222.167C517.135 218.716 512.29 210.324 512.29 203.422C512.29 196.521 517.135 193.723 523.112 197.174C529.089 200.625 533.934 209.017 533.934 215.918Z" fill="white"/>
<path d="M458.148 171.454C458.148 181.634 465.295 194.013 474.112 199.103C482.928 204.193 490.075 200.067 490.075 189.887C490.075 179.706 482.928 167.327 474.112 162.237C465.295 157.147 458.148 161.273 458.148 171.454ZM484.934 186.918C484.934 193.82 480.089 196.617 474.112 193.167C468.135 189.716 463.29 181.324 463.29 174.422C463.29 167.521 468.135 164.723 474.112 168.174C480.089 171.625 484.934 180.017 484.934 186.918Z" fill="white"/>
<rect x="-0.433013" y="0.25" width="38.5264" height="38.5264" rx="2.35187" transform="matrix(-0.866025 -0.5 -2.20305e-08 1 506.942 228.376)" stroke="#7BB1FE"/>
<path d="M410.323 144.028C410.323 141.607 410.736 139.449 411.538 137.676C412.341 135.902 413.516 134.549 414.999 133.693C416.481 132.837 418.241 132.496 420.178 132.688C422.114 132.879 424.19 133.601 426.287 134.811L426.287 140.748C424.865 139.928 423.458 139.438 422.145 139.308C420.832 139.178 419.639 139.41 418.634 139.99C417.629 140.57 416.832 141.488 416.288 142.69C415.744 143.892 415.464 145.355 415.464 146.996L410.323 144.028Z" fill="#7BB1FE"/>
<path d="M523.112 228.103C520.576 226.639 518.078 224.5 515.822 221.861C513.567 219.222 511.619 216.159 510.141 212.928C508.663 209.696 507.697 206.387 507.323 203.276C506.949 200.164 507.177 197.339 507.989 195.035C508.801 192.731 510.174 191.013 511.993 190.024C513.812 189.036 516.026 188.804 518.45 189.349C520.875 189.895 523.441 191.2 525.937 193.159C528.432 195.118 530.784 197.673 532.799 200.613L529.679 203.53C528.313 201.537 526.718 199.805 525.027 198.477C523.335 197.149 521.595 196.264 519.952 195.894C518.308 195.524 516.807 195.681 515.574 196.352C514.341 197.022 513.41 198.186 512.86 199.749C512.309 201.311 512.154 203.226 512.408 205.335C512.662 207.445 513.317 209.688 514.319 211.878C515.321 214.069 516.641 216.145 518.17 217.934C519.699 219.724 521.393 221.174 523.112 222.167L523.112 228.103Z" fill="#7BB1FE"/>
<path d="M523.112 228.103C526.13 229.846 529.086 230.565 531.638 230.176C534.189 229.788 536.231 228.309 537.528 225.91L532.885 220.68C532.006 222.306 530.621 223.309 528.892 223.572C527.162 223.835 525.158 223.348 523.112 222.167L523.112 228.103Z" fill="#FFC4C4"/>
<path d="M479.176 166.113C481.164 168.028 483.001 170.302 484.584 172.803C486.166 175.305 487.462 177.985 488.397 180.692C489.333 183.398 489.89 186.077 490.036 188.577C490.183 191.076 489.916 193.346 489.251 195.258L484.375 190.56C484.826 189.264 485.007 187.725 484.907 186.03C484.808 184.336 484.431 182.519 483.796 180.685C483.162 178.85 482.284 177.033 481.211 175.337C480.138 173.641 478.892 172.1 477.545 170.801L479.176 166.113Z" fill="#7BB1FE"/>
<path d="M489.254 195.25C488.423 197.644 486.991 199.41 485.086 200.393C483.181 201.375 480.86 201.544 478.33 200.883C475.8 200.223 473.137 198.754 470.579 196.606C468.02 194.459 465.644 191.699 463.661 188.57L467.027 186.026C468.371 188.147 469.982 190.018 471.717 191.474C473.451 192.93 475.256 193.926 476.971 194.373C478.687 194.821 480.26 194.707 481.552 194.041C482.843 193.375 483.814 192.177 484.377 190.554L489.254 195.25Z" fill="#FEC16B"/>
<path d="M463.697 239.052L409.697 207.875L409.697 196.323C414.312 198.988 414.774 202.968 418.928 205.366C423.082 207.764 425.009 202.688 429.543 205.306C435.543 208.77 435.543 212.896 438.774 214.761C442.005 216.626 445.697 210.094 453.543 214.624C459.543 218.088 463.697 223.787 463.697 223.787L463.697 239.052Z" fill="url(#paint5_linear)"/>
<g filter="url(#filter2_dddddd)">
<path fill-rule="evenodd" clip-rule="evenodd" d="M493.861 242.834C492.818 241.022 491.403 239.525 489.927 238.673C488.45 237.821 487.035 237.684 485.992 238.291C484.949 238.899 484.364 240.201 484.364 241.91L485.56 242.6C485.56 241.255 486.021 240.232 486.84 239.755C487.659 239.278 488.769 239.386 489.927 240.054C491.084 240.722 492.194 241.896 493.013 243.319C493.833 244.742 494.293 246.298 494.293 247.643L495.489 248.333C495.489 246.624 494.904 244.646 493.861 242.834Z" fill="#A2C8FF"/>
<path fill-rule="evenodd" clip-rule="evenodd" d="M490.489 239.688L490.489 230.712L489.293 230.022L489.293 238.998L490.489 239.688Z" fill="#A2C8FF"/>
<ellipse rx="4.23599" ry="4.23384" transform="matrix(-0.866025 -0.5 -2.20305e-08 1 489.902 230.373)" fill="#FEC16B"/>
<ellipse rx="4.23599" ry="4.23384" transform="matrix(-0.866025 -0.5 -2.20305e-08 1 495.332 248.242)" fill="#86DEC9"/>
<ellipse rx="4.23599" ry="4.23384" transform="matrix(-0.866025 -0.5 -2.20305e-08 1 484.669 242.086)" fill="white"/>
</g>
<g filter="url(#filter3_dddddd)">
<path fill-rule="evenodd" clip-rule="evenodd" d="M521.992 256.066C523.035 257.878 524.451 259.375 525.927 260.227C527.403 261.08 528.818 261.217 529.861 260.609C530.904 260.002 531.489 258.7 531.489 256.991L530.293 256.3C530.293 257.645 529.833 258.668 529.013 259.145C528.194 259.623 527.084 259.515 525.927 258.846C524.769 258.178 523.659 257.004 522.84 255.581C522.021 254.158 521.56 252.603 521.56 251.258L520.364 250.567C520.364 252.277 520.949 254.254 521.992 256.066Z" fill="#A2C8FF"/>
<path fill-rule="evenodd" clip-rule="evenodd" d="M525.364 259.212L525.364 268.188L526.56 268.878L526.56 259.903L525.364 259.212Z" fill="#A2C8FF"/>
<ellipse rx="4.23599" ry="4.23384" transform="matrix(-0.866025 -0.5 -2.20305e-08 1 525.902 268.897)" fill="#FFC3C3"/>
<ellipse rx="4.23599" ry="4.23384" transform="matrix(-0.866025 -0.5 -2.20305e-08 1 532.332 255.897)" fill="#86DEC9"/>
<ellipse rx="4.23599" ry="4.23384" transform="matrix(-0.866025 -0.5 -2.20305e-08 1 520.995 249.897)" fill="white"/>
<ellipse rx="4.23599" ry="4.23384" transform="matrix(-0.866025 -0.5 -2.20305e-08 1 598.168 305.352)" fill="white"/>
<ellipse rx="4.23599" ry="4.23384" transform="matrix(-0.866025 -0.5 -2.20305e-08 1 607.168 310.352)" fill="white"/>
</g>
<rect width="50.9433" height="3.2274" rx="1" transform="matrix(-0.866025 -0.5 -2.20305e-08 1 594.118 233.751)" fill="#FFC3C3"/>
<rect width="3.46411" height="3.2274" rx="1" transform="matrix(-0.866025 -0.5 -2.20305e-08 1 606 240.826)" fill="#86DEC9"/>
<rect width="8.08292" height="7.53058" rx="1" transform="matrix(-0.866025 -0.5 -2.20305e-08 1 610 258.136)" fill="#86DEC9"/>
<rect width="3.46411" height="3.2274" rx="1" transform="matrix(-0.866025 -0.5 -2.20305e-08 1 610 247.786)" fill="#86DEC9"/>
<rect width="50.9433" height="3.2274" rx="1" transform="matrix(-0.866025 -0.5 -2.20305e-08 1 594.118 248.751)" fill="#FFC3C3"/>
<rect width="44.9149" height="3.2274" rx="1" transform="matrix(-0.866025 -0.5 -2.20305e-08 1 588.898 235.772)" fill="#FFC3C3"/>
<rect width="3.46417" height="3.2274" rx="1" transform="matrix(-0.866025 -0.5 -2.20305e-08 1 606 245.862)" fill="white"/>
<rect width="3.46417" height="3.2274" rx="1" transform="matrix(-0.866025 -0.5 -2.20305e-08 1 610 242.826)" fill="white"/>
<rect width="44.9149" height="3.2274" rx="1" transform="matrix(-0.866025 -0.5 -2.20305e-08 1 588.898 250.772)" fill="#FFC3C3"/>
<rect width="44.9149" height="3.2274" rx="1" transform="matrix(-0.866025 -0.5 -2.20305e-08 1 588.898 240.737)" fill="white"/>
<path d="M212.633 287.189L270.204 253.951L270.253 543H212.68L212.633 287.189Z" fill="#0069FF"/>
<path d="M212.74 286.731L150 250.698V541.466L212.74 541.5V286.731Z" fill="#003F98"/>
<path d="M270.393 253.9L207.575 217.632L150.024 250.86L212.842 287.128L270.393 253.9Z" fill="#008EFF"/>
<rect x="0.866025" width="42.7852" height="42.2518" rx="5.69094" transform="matrix(-0.866025 -0.5 -0.866025 0.5 246.528 252.223)" stroke="#A2FFE9"/>
<rect x="0.866025" width="50.5813" height="49.9483" rx="5.69094" transform="matrix(-0.866025 -0.5 -0.866025 0.5 253.232 252.246)" stroke="#A2FFE9"/>
<path d="M156.977 18H259.977L243.375 251.095C243.375 251.095 215.027 270 208.977 270C202.927 270 175.355 251.095 175.355 251.095L156.977 18Z" fill="url(#paint6_linear)"/>
<path d="M322.47 235.214L389.104 196.743L389.98 542L323.347 542L322.47 235.214Z" fill="#0069FF"/>
<path d="M322.674 235.641L250.505 193.974L250.505 540.5H322.674V235.641Z" fill="#003F98"/>
<path d="M389.318 196.977L316.611 155L250 193.458L322.707 235.435L389.318 196.977Z" fill="#008EFF"/>
<rect x="0.866025" width="49.363" height="48.7456" rx="5.5939" transform="matrix(-0.866025 -0.5 -0.866025 0.5 361.438 194.967)" stroke="#A2FFE9"/>
<rect x="0.866025" width="58.3864" height="57.6538" rx="5.5939" transform="matrix(-0.866025 -0.5 -0.866025 0.5 369.199 194.994)" stroke="#A2FFE9"/>
<rect x="0.866025" width="70.8565" height="69.9647" rx="5.5939" transform="matrix(-0.866025 -0.5 -0.866025 0.5 379.935 195.034)" stroke="#A2FFE9"/>
<path d="M363.47 356.214L430.104 317.743L430.98 543.5L364.347 543.5L363.47 356.214Z" fill="#0069FF"/>
<path d="M363.674 356.641L291.505 314.974L291.505 543.5L363.674 543.5V356.641Z" fill="#003F98"/>
<path d="M430.318 317.977L357.611 276L291 314.458L363.707 356.435L430.318 317.977Z" fill="#008EFF"/>
<rect x="0.866025" width="49.363" height="48.7456" rx="5.5939" transform="matrix(-0.866025 -0.5 -0.866025 0.5 402.438 315.967)" stroke="#A2FFE9"/>
<rect x="0.866025" width="58.3864" height="57.6538" rx="5.5939" transform="matrix(-0.866025 -0.5 -0.866025 0.5 410.199 315.994)" stroke="#A2FFE9"/>
<rect x="0.866025" width="70.8565" height="69.9647" rx="5.5939" transform="matrix(-0.866025 -0.5 -0.866025 0.5 420.935 316.034)" stroke="#A2FFE9"/>
<path d="M198.371 485.973L341.228 403.495L343.107 545L200.25 545L198.371 485.973Z" fill="#0069FF"/>
<path d="M198.808 486.888L44.0831 397.558L44.0832 546.5L198.808 546.5V486.888Z" fill="#003F98"/>
<path d="M341.688 403.996L185.81 314L43.0001 396.451L198.878 486.448L341.688 403.996Z" fill="#008EFF"/>
<rect x="0.866025" width="104.687" height="103.363" rx="5.5939" transform="matrix(-0.866025 -0.5 -0.866025 0.5 280.066 399.191)" stroke="#A2FFE9"/>
<rect x="0.866025" width="124.032" height="122.461" rx="5.5939" transform="matrix(-0.866025 -0.5 -0.866025 0.5 296.706 399.249)" stroke="#A2FFE9"/>
<rect x="0.866025" width="150.767" height="148.855" rx="5.5939" transform="matrix(-0.866025 -0.5 -0.866025 0.5 319.723 399.335)" stroke="#A2FFE9"/>
<path d="M479.47 472.214L546.104 433.743L546.98 659.5L480.347 659.5L479.47 472.214Z" fill="#0069FF"/>
<path d="M479.674 472.641L407.505 430.974L407.505 659.5L479.674 659.5V472.641Z" fill="#003F98"/>
<path d="M546.318 433.977L473.611 392L407 430.458L479.707 472.435L546.318 433.977Z" fill="#008EFF"/>
<rect x="0.866025" width="49.363" height="48.7456" rx="5.5939" transform="matrix(-0.866025 -0.5 -0.866025 0.5 518.438 431.967)" stroke="#A2FFE9"/>
<rect x="0.866025" width="58.3864" height="57.6538" rx="5.5939" transform="matrix(-0.866025 -0.5 -0.866025 0.5 526.199 431.994)" stroke="#A2FFE9"/>
<rect x="0.866025" width="70.8565" height="69.9647" rx="5.5939" transform="matrix(-0.866025 -0.5 -0.866025 0.5 536.935 432.034)" stroke="#A2FFE9"/>
<path d="M619 267L630.217 273.476C634.043 275.685 637.145 281.058 637.145 285.476L637.145 399.077C637.145 403.495 634.043 405.286 630.217 403.077L619 396.601" stroke="#A2FFE9"/>
<path d="M619 281.111L625.536 284.885C627.449 285.989 629 288.676 629 290.885L629 384.263C629 386.472 627.449 387.368 625.536 386.263L619 382.49" stroke="#A2FFE9"/>
<path d="M522 439.842L633.681 504.322C635.594 505.426 637.145 504.531 637.145 502.322L637.145 444.476C637.145 442.267 635.594 439.581 633.681 438.476L622.752 432.166L619.154 430.089" stroke="#A2FFE9"/>
<path d="M582.233 475.182L552.458 492.372C550.545 493.476 547.443 493.476 545.53 492.372L488.511 459.452" stroke="#A2FFE9"/>
<path d="M411.349 321L421.267 326.726C423.18 327.831 423.18 329.622 421.267 330.726L404.057 340.663M370 344.873L379.918 350.599C381.832 351.704 384.933 351.704 386.847 350.599L404.057 340.663M404.057 340.663L404.057 396.545C404.057 398.436 405.368 400.248 407.698 401.576L436.5 418" stroke="#A2FFE9"/>
<path d="M305.629 407L315.547 412.726C317.461 413.831 317.461 415.622 315.547 416.726L298.337 426.663M264.28 430.873L274.198 436.599C276.112 437.704 279.213 437.704 281.127 436.599L298.337 426.663M298.337 426.663L298.337 482.545C298.337 484.436 299.648 486.248 301.978 487.576L330.78 504" stroke="#A2FFE9"/>
<path d="M268.58 201L258.662 206.726C256.748 207.831 256.748 209.622 258.662 210.726L275.872 220.663M309.929 224.873L300.01 230.599C298.097 231.704 294.995 231.704 293.082 230.599L275.872 220.663M275.872 220.663L275.872 333.045C275.872 334.936 274.561 336.748 272.231 338.076L243.429 354.5" stroke="#A2FFE9"/>
<path d="M307.51 321L297.592 326.726C295.679 327.831 295.679 329.622 297.592 330.726L314.802 340.663M348.859 344.873L338.941 350.599C337.028 351.704 333.926 351.704 332.013 350.599L314.802 340.663M314.802 340.663L314.802 374.545C314.802 376.436 313.491 378.248 311.161 379.576L298.581 386.75" stroke="#A2FFE9"/>
<path d="M600.406 127L590.487 132.726C588.574 133.831 588.574 135.622 590.487 136.726L607.698 146.663M641.755 150.873L631.836 156.599C629.923 157.704 626.821 157.704 624.908 156.599L607.698 146.663M607.698 146.663L607.698 180.545C607.698 182.436 606.387 184.248 604.057 185.576L591.476 192.75" stroke="#A2FFE9"/>
<path d="M497.406 111L487.487 116.726C485.574 117.831 485.574 119.622 487.487 120.726L504.698 130.663M538.755 134.873L528.836 140.599C526.923 141.704 523.821 141.704 521.908 140.599L504.698 130.663M504.698 130.663L504.698 142.599" stroke="#A2FFE9"/>
<path d="M424.406 437L414.487 442.726C412.574 443.831 412.574 445.622 414.487 446.726L431.698 456.663M465.755 460.873L455.836 466.599C453.923 467.704 450.821 467.704 448.908 466.599L431.698 456.663M431.698 456.663L431.698 490.59C431.698 492.454 430.423 494.243 428.151 495.567L375.96 525.983C374.051 527.096 370.94 527.101 369.02 525.995L326.5 501.5" stroke="#A2FFE9"/>
<path d="M369.629 200L379.547 205.726C381.461 206.831 381.461 208.622 379.547 209.726L362.337 219.663M328.28 223.873L338.198 229.599C340.112 230.704 343.213 230.704 345.127 229.599L362.337 219.663M362.337 219.663L362.337 275.545C362.337 277.436 363.648 279.248 365.978 280.576L391.386 295.065C393.272 296.14 393.323 297.889 391.5 299V299" stroke="#A2FFE9"/>
<path d="M467.005 421.316C467.005 421.316 466.665 419.839 466.324 419.215C465.983 418.59 464.052 418.249 463.598 418.874C463.143 419.499 461.894 425.689 462.007 426.144C462.121 426.598 463.143 426.996 463.598 427.053C464.052 427.109 464.961 425.69 465.699 425.519C466.437 425.349 469.05 425.122 469.448 424.554C469.845 423.986 470.924 422.623 470.981 421.884C471.038 421.146 470.811 421.316 470.129 421.316H467.005Z" fill="#0A1D38"/>
<path d="M479.276 426.495C478.717 426.241 476.329 423.752 475.974 423.091C475.618 422.431 473.535 422.583 472.976 423.091C472.418 423.599 470.894 428.832 470.995 429.645C471.097 430.457 471.452 430.864 472.214 430.864C472.976 430.864 475.567 429.949 476.177 430.051C476.786 430.153 478.31 430.61 479.276 430.457C480.241 430.305 484.508 428.07 484.762 427.663C485.016 427.257 484.508 426.495 484.152 426.241C483.797 425.987 479.834 426.749 479.276 426.495Z" fill="#0A1D38"/>
<path d="M468.494 420.845C471.523 408.745 472.734 403.135 474.327 395.133L475.28 388.229L468.494 383.586C467.086 399.631 466.592 406.607 463.614 418.941C464.462 421.875 465.715 421.911 468.494 420.845Z" fill="#FFC4C0"/>
<path d="M477.9 425.607L480.4 392.038L469.805 386.681C469.131 390.261 468.709 392.029 469.805 395.609C471.044 398.186 471.353 398.109 472.543 400.728C473.733 403.347 472.543 424.774 472.543 424.774C473.956 426.711 475.099 426.963 477.9 425.607Z" fill="#FFC4C0"/>
<path d="M471.652 364.752C475.664 367.28 479.067 369.99 480.762 372.251C482.457 374.513 481.682 383.183 480.762 392.369C480.586 392.964 479.576 394.107 476.949 393.916C474.322 393.726 469.922 389.71 468.051 387.726L468.58 383.322C467.909 381.179 466.335 375.346 465.402 369.156C464.47 362.966 469.181 363.641 471.652 364.752Z" fill="#D5E4F9"/>
<path d="M492.036 385.993C497.06 386.492 496.115 386.517 498.195 386.411C500.274 386.306 500.021 384.432 498.055 383.853C496.088 383.273 491.891 381.825 488.688 381.646C486.119 382.221 484.991 382.856 485.643 384.693C485.932 385.109 488.733 385.666 492.036 385.993Z" fill="#A68F7A"/>
<path d="M499.509 384.334C498.567 384.671 498.1 384.55 497.291 384.298C496.483 384.046 495.912 385.773 496.581 386.27C497.25 386.768 499.854 387.342 501.292 386.351C502.548 385.485 502.492 384.586 502.502 383.794C502.45 383.594 500.779 383.879 499.509 384.334Z" fill="#A68F7A"/>
<path d="M489.367 381.648C489.367 381.648 486.456 379.646 484.338 377.878C482.219 376.111 479.296 377.88 480.302 379.83C481.307 381.78 483.662 385.069 488.226 385.069C492.789 385.069 489.367 381.648 489.367 381.648Z" fill="#A68F7A"/>
<path d="M479.924 371.444L486.233 378.467C485.297 381.395 484.104 382.243 481.233 382.872L479.924 381.682C478.734 380.61 476.281 377.682 475.996 374.539C475.71 371.397 478.496 371.166 479.924 371.444Z" fill="#D5E4F9"/>
<path d="M483.553 379.837C484.838 378.98 484.942 377.634 484.922 376.98H485.517C485.834 377.257 485.835 377.341 486.469 378.021C486.901 378.484 486.711 380.058 485.338 381.325C483.791 382.753 482.958 383.11 481.38 383.11C480.785 382.515 480.726 382.545 480.488 382.009C480.25 381.473 480.488 381.146 480.488 381.146C481.103 381.067 482.267 380.694 483.553 379.837Z" fill="#E6F0FF"/>
<path d="M471.06 367.676V361.962C473.428 360.548 474.417 360.944 475.821 362.914V368.212C473.566 369.504 472.504 369.242 471.06 367.676Z" fill="#A68F7A"/>
<path d="M470.543 354.017C468.825 355.624 468.956 358.858 469.472 360.565C471.793 363.957 471.607 363.367 474.65 365.326C476.038 366.22 477.566 366.993 478.955 365.921C479.173 359.553 478.955 363.362 479.173 359.553C479.413 355.368 476.991 353.422 475.9 353.006C474.987 352.807 472.388 352.291 470.543 354.017Z" fill="#A68F7A"/>
<path d="M476.828 357.457C477.126 356.736 478.852 356.743 478.852 356.743C478.852 356.743 478.852 356.743 478.852 355.553C478.852 354.362 479.328 352.881 476.828 352.16C474.328 351.439 470.519 353.336 469.686 354.296C468.852 355.255 468.793 359.057 469.15 360.076C469.507 361.095 470.697 362.747 471.352 363.581C472.007 364.414 472.959 364.421 473.614 364.414C474.269 364.407 474.745 364.414 475.399 363.581C476.054 362.747 476.828 360.076 476.828 359.057C476.828 358.038 476.53 358.179 476.828 357.457Z" fill="#0A1D38"/>
<path d="M347.567 314.328C347.674 313.389 349.006 311.579 349.118 310.822C349.231 310.066 351.599 310.244 351.553 311.677C351.507 313.111 352.679 315.741 352.934 316.523C353.189 317.305 354.921 318.77 355.798 320.558C356.675 322.345 350.668 320.128 350.19 318.879C349.712 317.629 349.796 317.679 349.532 316.976C349.267 316.274 348.811 316.869 348.298 316.351C347.786 315.833 347.46 315.266 347.567 314.328Z" fill="#0046AA"/>
<path d="M356.099 310.968C356.099 310.968 356.715 308.874 357.083 307.889C357.451 306.904 359.367 307.147 359.336 307.739C359.306 308.332 366.94 312.878 367.388 313.412C367.835 313.947 362.925 313.973 361.96 313.424C360.995 312.876 360.4 312.626 359.531 312.528L357.286 312.275C356.2 312.153 356.099 310.968 356.099 310.968Z" fill="#0046AA"/>
<path d="M363.59 291.334C363.59 291.334 361.594 301.351 359.443 307.564C359.266 307.756 363.667 310.765 363.589 311.056C362.966 312.203 360.025 309.997 357.881 309.756C356.387 309.588 357.363 308.514 357.17 307.308C357.17 307.308 358.727 299.654 359.09 297.59C359.454 295.526 363.59 291.334 363.59 291.334Z" fill="#FFEFE1"/>
<path d="M363.59 291.334C363.59 291.334 361.594 301.351 359.443 307.564C359.266 307.756 363.667 310.765 363.589 311.056C362.966 312.203 360.025 309.997 357.881 309.756C356.387 309.588 357.363 308.514 357.17 307.308C357.17 307.308 358.727 299.654 359.09 297.59C359.454 295.526 363.59 291.334 363.59 291.334Z" fill="url(#paint7_linear)" fill-opacity="0.5"/>
<path d="M354.078 297.594L351.558 312.172C351.487 312.65 352.967 316.741 352.803 316.99C352.415 317.579 351.18 317.17 349.988 315.441C349.191 314.285 348.443 314.154 348.863 311.321C349.283 308.488 350.017 300.915 350.324 298.846C350.63 296.777 354.078 297.594 354.078 297.594Z" fill="#FFEFE1"/>
<path d="M354.078 297.594L351.558 312.172C351.487 312.65 352.967 316.741 352.803 316.99C352.415 317.579 351.18 317.17 349.988 315.441C349.191 314.285 348.443 314.154 348.863 311.321C349.283 308.488 350.017 300.915 350.324 298.846C350.63 296.777 354.078 297.594 354.078 297.594Z" fill="url(#paint8_linear)" fill-opacity="0.5"/>
<path d="M363.112 278.86C363.169 278.079 364.175 271.76 363.832 271.044C363.489 270.327 356.352 268.631 355.724 269.608C355.095 270.586 351.83 277.492 351.602 278.86C351.373 280.228 351.437 294.096 350.809 296.05C350.18 298.005 348.526 305.91 348.526 307.539C348.526 309.167 351.941 309.541 352.627 308.564C353.313 307.587 354.695 298.005 355.724 296.506C356.753 295.008 358.724 283.485 359.181 282.899C359.638 282.313 363.055 279.642 363.112 278.86Z" fill="#002B68"/>
<path d="M365.729 281.857C365.854 279.844 366.166 277.376 365.729 275.753C365.291 274.13 359.359 274.584 358.922 276.143C358.485 277.701 359.734 289.908 359.609 292.311C359.484 294.714 357.378 303.035 357.753 304.463C358.127 305.892 360.828 306.462 360.828 305.488C360.828 304.514 363.231 294.454 363.855 292.766C364.48 291.077 365.604 283.87 365.729 281.857Z" fill="#002B68"/>
<path d="M358.361 241C360.876 241 362.803 242.017 363.712 243.568C364.622 245.12 364.996 255.448 364.354 258.23C363.712 261.013 361.144 262.511 358.361 262.511C356.566 262.511 354.568 262.511 353.171 256.571C352.957 255.662 352.636 249.455 353.171 245.923C353.706 242.391 355.853 241 358.361 241Z" fill="#0A1D38"/>
<path d="M363.823 254.046C365.803 256.079 364.338 254.959 366.177 258.487C368.017 262.015 366.284 263.57 364.197 266.62C364.732 271.757 366.543 276.106 366.177 276.413C365.812 276.72 363.601 279.268 362.432 279.78L361.522 274.486L359.436 280.586C357.578 281.239 356.32 281.334 355.101 281.041C353.883 280.749 351.944 279.837 351.944 276.413C351.944 272.988 355.101 268.707 354.887 267.744C354.673 266.781 353.121 264.641 352.64 263.142C352.158 261.644 351.998 260.146 352.64 258.808C353.282 257.47 361.844 252.012 363.823 254.046Z" fill="#002B68"/>
<path d="M346.299 265.763C347.048 264.158 352.613 257.736 353.897 257.629C355.181 257.522 356.251 259.021 355.609 260.198C354.967 261.375 348.867 267.261 347.583 267.368C346.299 267.475 345.549 267.368 346.299 265.763Z" fill="#002B68"/>
<path d="M355.102 274.861C354.459 273.898 349.323 266.406 348.359 265.55C347.396 264.694 346.219 265.764 346.005 266.941C345.791 268.119 352.64 276.038 353.71 276.466C354.78 276.894 355.744 275.824 355.102 274.861Z" fill="#002B68"/>
<path d="M363.382 255.89C362.376 254.319 361.747 255.217 360.615 255.105C359.483 254.992 357.093 255.441 356.59 256.451C356.087 257.461 356.716 257.237 357.848 258.359C358.98 259.482 363.382 263.41 363.382 263.41C363.382 263.41 364.388 257.461 363.382 255.89Z" fill="white"/>
<path d="M361.857 255.737V250.6C359.728 249.329 358.839 249.685 357.576 251.456V256.218C359.604 257.381 360.559 257.145 361.857 255.737Z" fill="#FFEFE1"/>
<path d="M360.255 241.751C358.471 241.122 355.753 242.107 354.799 243.83C353.846 245.553 353.628 248.568 355.893 250.569C358.332 252.723 358.942 252.648 359.979 253.053C361.466 253.634 363.592 253.464 365.042 253.418C365.358 253.295 365.64 253.205 365.818 252.65C366.041 251.957 364.265 246.909 363.494 244.571C363.193 243.656 362.486 242.537 360.255 241.751Z" fill="#FFEFE1"/>
<path d="M361.559 248.143C361.87 246.35 362.451 244.694 361.508 243.201C360.566 241.709 359.181 240.926 357.758 241.395C356.335 241.864 354.572 242.67 354.094 243.954C353.616 245.238 353.3 248.385 354.24 250.554C355.18 252.723 357.745 255.033 357.745 255.033C357.745 255.033 361.248 249.935 361.559 248.143Z" fill="#0A1D38"/>
<path d="M359.888 241.707C358.94 241.907 357.042 242.645 357.042 242.645C357.042 242.645 362.122 244.211 362.965 244.975C363.808 245.739 364.864 248.687 364.864 248.687C364.836 247.2 365.027 245.676 364.793 244.88C364.559 244.084 364.215 243.211 363.237 242.294C362.258 241.377 360.836 241.507 359.888 241.707Z" fill="#0A1D38"/>
<path opacity="0.7" fill-rule="evenodd" clip-rule="evenodd" d="M173.37 203L65.0523 265.537V359.523L173.37 296.986V203ZM143.417 288.76L112.417 306.658V332.174L143.417 314.276V288.76Z" fill="#00C2FF"/>
<g opacity="0.6">
<rect width="35.6127" height="3.96285" transform="matrix(-0.866025 0.5 0.866025 0.5 143.262 288.962)" fill="#0069FF"/>
<rect opacity="0.7" width="4.0217" height="25.4557" transform="matrix(-0.866025 -0.5 -2.20305e-08 1 146.9 290.946)" fill="#0069FF"/>
<rect opacity="0.2" width="4.0217" height="26.056" transform="matrix(-0.866025 -0.5 -2.20305e-08 1 115.903 308.779)" fill="#0069FF"/>
</g>
<path opacity="0.7" fill-rule="evenodd" clip-rule="evenodd" d="M176.853 205.09L68.5352 267.627V361.613L176.853 299.075V205.09ZM146.9 290.85L115.9 308.747V334.264L146.9 316.366L146.9 290.85Z" fill="#00C2FF"/>
<g opacity="0.6">
<rect width="124.988" height="4.07341" transform="matrix(-0.866025 0.5 0.866025 0.5 173.243 203.077)" fill="#0069FF"/>
<rect opacity="0.7" width="4.02405" height="93.8563" transform="matrix(-0.866025 -0.5 -2.20305e-08 1 176.855 205.124)" fill="#0069FF"/>
<rect width="4.0217" height="93.9224" transform="matrix(-0.866025 -0.5 -2.20305e-08 1 68.5373 267.617)" fill="#0069FF"/>
</g>
<path d="M111.632 297.992L108.33 299.898L74.9315 358.195L69 361.619" stroke="#A2FFE9" stroke-width="0.5"/>
<path d="M145.368 278.515L148.67 276.608L176.272 292.914" stroke="#A2FFE9" stroke-width="0.5"/>
<path d="M111.632 266.802L108.33 268.709L88.1777 256.804" stroke="#A2FFE9" stroke-width="0.5"/>
<path d="M145.368 247.325L148.67 245.419L168.962 210" stroke="#A2FFE9" stroke-width="0.5"/>
<path d="M111.632 295.423L106.136 298.597L77.8972 347.921L69.3707 352.844" stroke="#A2FFE9" stroke-width="0.5"/>
<path d="M145.368 275.946L150.864 272.773L176.5 287.949" stroke="#A2FFE9" stroke-width="0.5"/>
<path d="M111.632 269.371L106.136 272.544L84 259.44" stroke="#A2FFE9" stroke-width="0.5"/>
<path d="M145.368 249.894L150.864 246.72L173.5 207.183" stroke="#A2FFE9" stroke-width="0.5"/>
<path d="M111.262 293.069L103.901 297.319L83.0075 333.781L69.3707 341.655" stroke="#A2FFE9" stroke-width="0.5"/>
<path d="M145.738 273.164L153.099 268.914L173.993 281.251L177 279.515" stroke="#A2FFE9" stroke-width="0.5"/>
<path d="M111.262 272.153L103.901 276.403L83.0075 264.066L69.3707 271.939" stroke="#A2FFE9" stroke-width="0.5"/>
<path d="M145.738 252.248L153.099 247.998L173.993 211.536L177 209.799" stroke="#A2FFE9" stroke-width="0.5"/>
<path d="M111.262 290.501L101.751 295.992L88.2536 319.623L69 330.739" stroke="#A2FFE9" stroke-width="0.5"/>
<path d="M145.738 270.596L155.249 265.105L168.746 273.15L177 268.385" stroke="#A2FFE9" stroke-width="0.5"/>
<path d="M111.262 274.722L101.751 280.213L88.2536 272.167L69 283.283" stroke="#A2FFE9" stroke-width="0.5"/>
<path d="M145.738 254.817L155.249 249.326L168.746 225.694L177 220.929" stroke="#A2FFE9" stroke-width="0.5"/>
<path d="M111.262 287.932L99.415 294.772L91.0088 309.471L69 322.178" stroke="#A2FFE9" stroke-width="0.5"/>
<path d="M145.738 268.027L157.585 261.188L165.991 266.18L176.996 259.826" stroke="#A2FFE9" stroke-width="0.5"/>
<path d="M111.262 277.29L99.415 284.13L91.0088 279.138L69 291.844" stroke="#A2FFE9" stroke-width="0.5"/>
<path d="M145.738 257.385L157.585 250.545L165.991 235.846L176.996 229.493" stroke="#A2FFE9" stroke-width="0.5"/>
<path d="M111.262 285.364L96.921 293.643L91.833 302.574L69 315.757" stroke="#A2FFE9" stroke-width="0.5"/>
<path d="M145.738 265.459L160.079 257.179L165.167 260.235L176.584 253.643" stroke="#A2FFE9" stroke-width="0.5"/>
<path d="M111.262 282.796L69 307.195" stroke="#A2FFE9" stroke-width="0.5"/>
<path d="M145.738 262.89L177 244.841" stroke="#A2FFE9" stroke-width="0.5"/>
<path d="M111.262 279.859L96.921 288.138L91.833 285.083L69 298.265" stroke="#A2FFE9" stroke-width="0.5"/>
<path d="M145.738 259.953L160.079 251.674L165.167 242.743L176.584 236.152" stroke="#A2FFE9" stroke-width="0.5"/>
<path d="M142.402 245.554L142.402 238.705L153.866 219" stroke="#A2FFE9" stroke-width="0.5"/>
<path d="M115.391 261.148L115.391 254.299L103.421 247.548" stroke="#A2FFE9" stroke-width="0.5"/>
<path d="M140.178 246.838L140.178 236.992L149 221.839" stroke="#A2FFE9" stroke-width="0.5"/>
<path d="M117.615 259.864L117.615 250.019L108.339 244.797" stroke="#A2FFE9" stroke-width="0.5"/>
<path d="M137.953 247.694L137.953 231.948L141.122 226.5" stroke="#A2FFE9" stroke-width="0.5"/>
<path d="M119.84 258.152L119.84 242.406L116.5 240.521" stroke="#A2FFE9" stroke-width="0.5"/>
<path d="M135.729 230L135.729 248.978" stroke="#A2FFE9" stroke-width="0.5"/>
<path d="M122.064 237.5L122.064 256.868" stroke="#A2FFE9" stroke-width="0.5"/>
<path d="M133.505 231L133.505 250.263" stroke="#A2FFE9" stroke-width="0.5"/>
<path d="M124.288 236L124.288 255.584" stroke="#A2FFE9" stroke-width="0.5"/>
<path d="M131.28 232L131.28 251.547" stroke="#A2FFE9" stroke-width="0.5"/>
<path d="M129.056 233.5L129.056 252.831" stroke="#A2FFE9" stroke-width="0.5"/>
<path d="M126.513 235L126.513 254.299" stroke="#A2FFE9" stroke-width="0.5"/>
<path d="M115.391 300.102L115.391 306.952L90.927 349L90.927 380" stroke="#A2FFE9" stroke-width="0.5"/>
<path d="M142.402 284.508L142.402 291.357L166.588 305L166.588 335.5" stroke="#A2FFE9" stroke-width="0.5"/>
<path d="M117.615 298.818L117.615 308.664L96 345.79L96 376.5" stroke="#A2FFE9" stroke-width="0.5"/>
<path d="M140.178 294.5V285.792" stroke="#A2FFE9" stroke-width="0.5"/>
<path d="M119.84 306.5L119.84 297.962" stroke="#A2FFE9" stroke-width="0.5"/>
<path d="M137.953 296L137.953 287.504" stroke="#A2FFE9" stroke-width="0.5"/>
<path d="M135.729 297L135.729 288.789" stroke="#A2FFE9" stroke-width="0.5"/>
<path d="M124.288 304L124.288 295.394" stroke="#A2FFE9" stroke-width="0.5"/>
<path d="M122 305L122 297" stroke="#A2FFE9" stroke-width="0.5"/>
<path d="M133.505 298.5V290.073" stroke="#A2FFE9" stroke-width="0.5"/>
<path d="M126.513 302.5L126.513 294.11" stroke="#A2FFE9" stroke-width="0.5"/>
<path d="M129 301L129 293" stroke="#A2FFE9" stroke-width="0.5"/>
<path d="M131.28 300L131.28 291.357" stroke="#A2FFE9" stroke-width="0.5"/>
<rect x="0.216506" y="0.125" width="39.7383" height="38.8821" rx="4.75" transform="matrix(0.866025 -0.5 2.20305e-08 1 111.291 263.213)" stroke="#A2FFE9" stroke-width="0.5"/>
<rect width="1.71227" height="3.42453" transform="matrix(0.866025 -0.5 2.20305e-08 1 114.227 260.536)" fill="#A2FFE9"/>
<rect width="1.71227" height="3.42453" transform="matrix(0.866025 -0.5 2.20305e-08 1 114.227 298.206)" fill="#A2FFE9"/>
<rect width="1.71227" height="3.42453" transform="matrix(-1.58247e-08 1 -0.866025 0.5 113.486 264.389)" fill="#A2FFE9"/>
<rect width="1.71227" height="3.42453" transform="matrix(-1.58247e-08 1 -0.866025 0.5 146.85 245.126)" fill="#A2FFE9"/>
<rect width="1.71227" height="3.42453" transform="matrix(0.866025 -0.5 2.20305e-08 1 116.452 259.252)" fill="#A2FFE9"/>
<rect width="1.71227" height="3.42453" transform="matrix(0.866025 -0.5 2.20305e-08 1 116.452 296.922)" fill="#A2FFE9"/>
<rect width="1.71227" height="3.42453" transform="matrix(-1.58247e-08 1 -0.866025 0.5 113.486 266.957)" fill="#A2FFE9"/>
<rect width="1.71227" height="3.42453" transform="matrix(-1.58247e-08 1 -0.866025 0.5 146.85 247.694)" fill="#A2FFE9"/>
<rect width="1.71227" height="3.42453" transform="matrix(0.866025 -0.5 2.20305e-08 1 118.676 257.968)" fill="#A2FFE9"/>
<rect width="1.71227" height="3.42453" transform="matrix(0.866025 -0.5 2.20305e-08 1 118.676 295.638)" fill="#A2FFE9"/>
<rect width="1.71227" height="3.42453" transform="matrix(-1.58247e-08 1 -0.866025 0.5 113.486 269.525)" fill="#A2FFE9"/>
<rect width="1.71227" height="3.42453" transform="matrix(-1.58247e-08 1 -0.866025 0.5 146.85 250.262)" fill="#A2FFE9"/>
<rect width="1.71227" height="3.42453" transform="matrix(0.866025 -0.5 2.20305e-08 1 120.9 256.683)" fill="#A2FFE9"/>
<rect width="1.71227" height="3.42453" transform="matrix(0.866025 -0.5 2.20305e-08 1 120.9 294.353)" fill="#A2FFE9"/>
<rect width="1.71227" height="3.42453" transform="matrix(-1.58247e-08 1 -0.866025 0.5 113.486 272.094)" fill="#A2FFE9"/>
<rect width="1.71227" height="3.42453" transform="matrix(-1.58247e-08 1 -0.866025 0.5 146.85 252.831)" fill="#A2FFE9"/>
<rect width="1.71227" height="3.42453" transform="matrix(0.866025 -0.5 2.20305e-08 1 123.125 255.399)" fill="#A2FFE9"/>
<rect width="1.71227" height="3.42453" transform="matrix(0.866025 -0.5 2.20305e-08 1 123.125 293.069)" fill="#A2FFE9"/>
<rect width="1.71227" height="3.42453" transform="matrix(-1.58247e-08 1 -0.866025 0.5 113.486 274.662)" fill="#A2FFE9"/>
<rect width="1.71227" height="3.42453" transform="matrix(-1.58247e-08 1 -0.866025 0.5 146.85 255.399)" fill="#A2FFE9"/>
<rect width="1.71227" height="3.42453" transform="matrix(0.866025 -0.5 2.20305e-08 1 125.349 254.115)" fill="#A2FFE9"/>
<rect width="1.71227" height="3.42453" transform="matrix(0.866025 -0.5 2.20305e-08 1 125.349 291.785)" fill="#A2FFE9"/>
<rect width="1.71227" height="3.42453" transform="matrix(-1.58247e-08 1 -0.866025 0.5 113.486 277.231)" fill="#A2FFE9"/>
<rect width="1.71227" height="3.42453" transform="matrix(-1.58247e-08 1 -0.866025 0.5 146.85 257.968)" fill="#A2FFE9"/>
<rect width="1.71227" height="3.42453" transform="matrix(0.866025 -0.5 2.20305e-08 1 128.315 252.403)" fill="#A2FFE9"/>
<rect width="1.71227" height="3.42453" transform="matrix(0.866025 -0.5 2.20305e-08 1 128.315 290.073)" fill="#A2FFE9"/>
<rect width="1.71227" height="3.42453" transform="matrix(-1.58247e-08 1 -0.866025 0.5 113.486 280.655)" fill="#A2FFE9"/>
<rect width="1.71227" height="3.42453" transform="matrix(-1.58247e-08 1 -0.866025 0.5 146.85 261.392)" fill="#A2FFE9"/>
<rect width="1.71227" height="3.42453" transform="matrix(0.866025 -0.5 2.20305e-08 1 130.539 251.119)" fill="#A2FFE9"/>
<rect width="1.71227" height="3.42453" transform="matrix(0.866025 -0.5 2.20305e-08 1 130.539 288.788)" fill="#A2FFE9"/>
<rect width="1.71227" height="3.42453" transform="matrix(-1.58247e-08 1 -0.866025 0.5 113.486 283.224)" fill="#A2FFE9"/>
<rect width="1.71227" height="3.42453" transform="matrix(-1.58247e-08 1 -0.866025 0.5 146.85 263.961)" fill="#A2FFE9"/>
<rect width="1.71227" height="3.42453" transform="matrix(0.866025 -0.5 2.20305e-08 1 132.763 249.834)" fill="#A2FFE9"/>
<rect width="1.71227" height="3.42453" transform="matrix(0.866025 -0.5 2.20305e-08 1 132.763 287.504)" fill="#A2FFE9"/>
<rect width="1.71227" height="3.42453" transform="matrix(-1.58247e-08 1 -0.866025 0.5 113.486 285.792)" fill="#A2FFE9"/>
<rect width="1.71227" height="3.42453" transform="matrix(-1.58247e-08 1 -0.866025 0.5 146.85 266.529)" fill="#A2FFE9"/>
<rect width="1.71227" height="3.42453" transform="matrix(0.866025 -0.5 2.20305e-08 1 134.988 248.55)" fill="#A2FFE9"/>
<rect width="1.71227" height="3.42453" transform="matrix(0.866025 -0.5 2.20305e-08 1 134.988 286.22)" fill="#A2FFE9"/>
<rect width="1.71227" height="3.42453" transform="matrix(-1.58247e-08 1 -0.866025 0.5 113.486 288.36)" fill="#A2FFE9"/>
<rect width="1.71227" height="3.42453" transform="matrix(-1.58247e-08 1 -0.866025 0.5 146.85 269.097)" fill="#A2FFE9"/>
<rect width="1.71227" height="3.42453" transform="matrix(0.866025 -0.5 2.20305e-08 1 137.212 247.266)" fill="#A2FFE9"/>
<rect width="1.71227" height="3.42453" transform="matrix(0.866025 -0.5 2.20305e-08 1 137.212 284.936)" fill="#A2FFE9"/>
<rect width="1.71227" height="3.42453" transform="matrix(-1.58247e-08 1 -0.866025 0.5 113.486 290.929)" fill="#A2FFE9"/>
<rect width="1.71227" height="3.42453" transform="matrix(-1.58247e-08 1 -0.866025 0.5 146.85 271.666)" fill="#A2FFE9"/>
<rect width="1.71227" height="3.42453" transform="matrix(0.866025 -0.5 2.20305e-08 1 139.436 245.982)" fill="#A2FFE9"/>
<rect width="1.71227" height="3.42453" transform="matrix(0.866025 -0.5 2.20305e-08 1 139.436 283.652)" fill="#A2FFE9"/>
<rect width="1.71227" height="3.42453" transform="matrix(-1.58247e-08 1 -0.866025 0.5 113.486 293.497)" fill="#A2FFE9"/>
<rect width="1.71227" height="3.42453" transform="matrix(-1.58247e-08 1 -0.866025 0.5 146.85 274.234)" fill="#A2FFE9"/>
<rect width="1.71227" height="3.42453" transform="matrix(0.866025 -0.5 2.20305e-08 1 141.66 244.698)" fill="#A2FFE9"/>
<rect width="1.71227" height="3.42453" transform="matrix(0.866025 -0.5 2.20305e-08 1 141.66 282.367)" fill="#A2FFE9"/>
<rect width="1.71227" height="3.42453" transform="matrix(-1.58247e-08 1 -0.866025 0.5 113.486 296.066)" fill="#A2FFE9"/>
<rect width="1.71227" height="3.42453" transform="matrix(-1.58247e-08 1 -0.866025 0.5 146.85 276.803)" fill="#A2FFE9"/>
<rect opacity="0.7" width="34.541" height="25.6039" transform="matrix(-0.866025 0.5 0.866025 0.5 145.913 324.301)" fill="#00C2FF"/>
<rect opacity="0.6" width="34.489" height="3.1293" transform="matrix(0.866025 -0.5 2.20305e-08 1 116.016 338.423)" fill="#6AC1FF" fill-opacity="0.5"/>
<rect opacity="0.8" width="34.489" height="3.1293" transform="matrix(0.866025 -0.5 2.20305e-08 1 138.165 351.245)" fill="#00C2FF"/>
<rect opacity="0.6" width="25.5769" height="2.98971" transform="matrix(-0.866025 -0.5 -2.20305e-08 1 168.034 334.08)" fill="#6AC1FF" fill-opacity="0.5"/>
<rect opacity="0.6" width="25.5761" height="3.22647" transform="matrix(-0.866025 -0.5 -2.20305e-08 1 138.165 351.149)" fill="#6AC1FF" fill-opacity="0.5"/>
<rect opacity="0.7" width="34.3151" height="25.659" transform="matrix(-0.866025 0.5 0.866025 0.5 145.735 321.203)" fill="#00C2FF"/>
<path d="M138.815 325.471L143.567 328.214L157.77 328.148L158.378 328.499L143.315 328.569L138.382 325.721L138.815 325.471Z" fill="#A2FFE9"/>
<path d="M142.439 323.379L141.823 323.735L150.079 323.708L149.47 323.356L142.439 323.379Z" fill="#A2FFE9"/>
<path d="M136.011 327.09L143.881 331.634L161.936 331.56L165.811 333.797L166.244 333.547L162.188 331.206L144.133 331.28L136.444 326.84L136.011 327.09Z" fill="#A2FFE9"/>
<path d="M133.639 328.46L142.388 333.511L153.348 333.448L159.881 337.221L160.314 336.971L153.599 333.093L142.639 333.156L134.072 328.21L133.639 328.46Z" fill="#A2FFE9"/>
<path d="M131.36 329.776L152.068 341.732L151.635 341.982L130.927 330.026L131.36 329.776Z" fill="#A2FFE9"/>
<path d="M128.988 331.145L137.737 336.196L137.629 342.524L144.162 346.296L143.729 346.546L137.014 342.669L137.123 336.341L128.555 331.395L128.988 331.145Z" fill="#A2FFE9"/>
<path d="M126.616 332.514L134.486 337.058L134.358 347.482L138.233 349.719L137.8 349.969L133.744 347.628L133.872 337.204L126.183 332.764L126.616 332.514Z" fill="#A2FFE9"/>
<path d="M124.245 333.884L129.177 336.731L129.05 345.824L128.443 345.474L128.563 336.877L123.812 334.134L124.245 333.884Z" fill="#A2FFE9"/>
<path d="M120.804 335.87L120.753 341.034L120.144 340.683L120.188 336.226L120.804 335.87Z" fill="#A2FFE9"/>
<path d="M169.995 389.494C169.995 389.494 170.335 388.018 170.676 387.393C171.017 386.768 172.948 386.427 173.402 387.052C173.857 387.677 175.106 393.868 174.993 394.322C174.879 394.776 173.857 395.174 173.402 395.231C172.948 395.288 172.039 393.868 171.301 393.697C170.563 393.527 167.95 393.3 167.552 392.732C167.155 392.164 166.076 390.801 166.019 390.062C165.962 389.324 166.189 389.494 166.871 389.494H169.995Z" fill="#0A1D38"/>
<path d="M157.724 394.673C158.283 394.419 160.671 391.93 161.026 391.269C161.382 390.609 163.465 390.761 164.024 391.269C164.582 391.777 166.106 397.01 166.005 397.823C165.903 398.635 165.548 399.042 164.786 399.042C164.024 399.042 161.433 398.127 160.823 398.229C160.214 398.331 158.69 398.788 157.724 398.635C156.759 398.483 152.492 396.248 152.238 395.841C151.984 395.435 152.492 394.673 152.848 394.419C153.203 394.165 157.166 394.927 157.724 394.673Z" fill="#0A1D38"/>
<path d="M168.506 389.023C165.477 376.923 164.266 371.313 162.673 363.311L161.72 356.407L168.506 351.764C169.914 367.81 170.408 374.786 173.386 387.119C172.538 390.053 171.285 390.089 168.506 389.023Z" fill="#A2FFE9"/>
<path d="M159.1 393.785L156.6 360.216L167.195 354.859C167.869 358.439 168.291 360.208 167.195 363.787C165.956 366.364 165.647 366.287 164.457 368.906C163.267 371.525 164.457 392.952 164.457 392.952C163.044 394.889 161.901 395.141 159.1 393.785Z" fill="#A2FFE9"/>
<path d="M165.348 332.93C161.336 335.458 157.933 338.168 156.238 340.43C154.543 342.691 155.318 351.361 156.238 360.547C156.414 361.142 157.424 362.285 160.051 362.095C162.678 361.904 167.078 357.889 168.949 355.905L168.42 351.5C169.091 349.357 170.665 343.525 171.597 337.334C172.53 331.144 167.819 331.819 165.348 332.93Z" fill="#0D2953"/>
<path d="M144.964 354.172C139.94 354.67 140.885 354.695 138.805 354.589C136.726 354.484 136.979 352.611 138.945 352.031C140.912 351.451 145.109 350.004 148.312 349.824C150.881 350.399 152.009 351.034 151.357 352.871C151.068 353.287 148.266 353.844 144.964 354.172Z" fill="#FBDFB6"/>
<path d="M136 352.178C138.337 353.281 138.615 351.584 139.5 352.178C140.385 352.772 138.939 354.984 137.923 354.721C136.908 354.458 134.683 353.989 133.23 353.225C132.253 352.297 131.925 351.721 132.695 351.086C132.932 350.979 134.464 351.453 136 352.178Z" fill="#FBDFB6"/>
<path d="M147.633 349.826C147.633 349.826 150.544 347.824 152.662 346.057C154.78 344.289 157.704 346.059 156.698 348.008C155.693 349.958 153.338 353.247 148.774 353.247C144.211 353.247 147.633 349.826 147.633 349.826Z" fill="#FBDFB6"/>
<path d="M157.076 339.622L150.767 346.646C151.703 349.574 152.896 350.422 155.767 351.05L157.076 349.86C158.266 348.788 160.719 345.86 161.004 342.717C161.29 339.575 158.504 339.345 157.076 339.622Z" fill="#0D2953"/>
<path d="M153.447 348.015C152.162 347.158 152.058 345.813 152.078 345.158H151.483C151.166 345.436 151.165 345.52 150.531 346.199C150.099 346.662 150.289 348.236 151.662 349.503C153.209 350.931 154.042 351.288 155.62 351.288C156.215 350.693 156.274 350.723 156.512 350.187C156.75 349.652 156.512 349.324 156.512 349.324C155.897 349.245 154.733 348.872 153.447 348.015Z" fill="#0D2953"/>
<path d="M165.94 335.854V330.14C163.571 328.726 162.583 329.122 161.179 331.093V336.39C163.434 337.683 164.496 337.42 165.94 335.854Z" fill="#FBDFB6"/>
<path d="M168.211 323.988C169.164 326.138 167.779 329.064 166.637 330.432C163.174 332.647 163.576 332.177 160.009 332.79C158.383 333.07 157.359 332.707 156.5 331.178C156.5 329.178 156.815 329.299 158.104 325.708C159.519 321.763 162.509 320.919 163.677 320.962C164.594 321.136 167.188 321.678 168.211 323.988Z" fill="#FBDFB6"/>
<path d="M161.32 325.678C161.134 324.492 159.498 323.247 159.498 323.247C159.498 323.247 158.535 320.916 159 319.82C159.465 318.725 160.57 319.507 163.153 319.82C165.736 320.134 167.528 321.178 168.5 324.178C169.472 327.178 167.851 329.311 167.124 330.109C166.397 330.907 165.428 332.167 164.5 332.678C163.572 333.189 162.6 332.941 162 332.678C161.4 332.416 161.277 332.701 161 331.678C160.723 330.655 161.606 327.508 161.32 325.678Z" fill="#0A1D38"/>
<path d="M199.05 379.05C199.05 379.05 199.395 377.554 199.74 376.921C200.085 376.288 202.042 375.943 202.502 376.576C202.962 377.209 204.228 383.48 204.113 383.94C203.998 384.401 202.962 384.803 202.502 384.861C202.042 384.918 201.121 383.48 200.373 383.307C199.625 383.135 196.979 382.905 196.576 382.329C196.173 381.754 195.08 380.373 195.022 379.625C194.965 378.877 195.195 379.05 195.885 379.05H199.05Z" fill="#0A1D38"/>
<path d="M186.622 384.296C187.188 384.039 189.607 381.517 189.967 380.848C190.327 380.179 192.437 380.334 193.003 380.848C193.569 381.363 195.113 386.663 195.01 387.487C194.907 388.31 194.547 388.722 193.775 388.722C193.003 388.722 190.379 387.795 189.761 387.898C189.144 388.001 187.6 388.464 186.622 388.31C185.645 388.156 181.322 385.891 181.065 385.48C180.807 385.068 181.322 384.296 181.682 384.039C182.042 383.782 186.056 384.553 186.622 384.296Z" fill="#0A1D38"/>
<path d="M197.54 378.573C194.472 366.316 193.245 360.633 191.631 352.526L190.666 345.532L197.54 340.829C198.966 357.083 199.466 364.15 202.484 376.644C201.625 379.616 200.355 379.652 197.54 378.573Z" fill="#0046AA"/>
<path d="M188.014 383.396L185.481 349.391L196.213 343.965C196.896 347.591 197.324 349.383 196.213 353.009C194.958 355.619 194.646 355.541 193.44 358.194C192.234 360.847 193.44 382.552 193.44 382.552C192.009 384.515 190.85 384.77 188.014 383.396Z" fill="#0046AA"/>
<path d="M194.343 321.751C190.28 324.312 186.832 327.056 185.115 329.348C183.398 331.639 184.183 340.422 185.115 349.727C185.294 350.33 186.317 351.487 188.978 351.294C191.639 351.101 196.096 347.034 197.991 345.024L197.455 340.562C198.135 338.392 199.73 332.483 200.674 326.212C201.618 319.942 196.847 320.625 194.343 321.751Z" fill="#D5E4F9"/>
<path d="M177.511 339.449C177.911 338.448 179.345 336.838 181.49 335.048C183.636 333.258 186.597 335.05 185.579 337.025C184.561 339 181.044 340.869 179.643 341.57C178.242 342.271 177.111 340.451 177.511 339.449Z" fill="#FFEFE1"/>
<path d="M177.511 339.449C177.911 338.448 179.345 336.838 181.49 335.048C183.636 333.258 186.597 335.05 185.579 337.025C184.561 339 181.044 340.869 179.643 341.57C178.242 342.271 177.111 340.451 177.511 339.449Z" fill="url(#paint9_linear)" fill-opacity="0.5"/>
<path d="M176.697 337.29C176.47 337.302 176.162 337.463 176.162 337.463L177.974 338.915L180.483 335.798C180.483 335.798 179.355 335.264 177.964 335.868C177.964 335.868 178.013 336.054 177.953 336.18C177.872 336.347 177.762 336.177 177.392 336.39C177.248 336.472 177.547 336.561 177.423 336.671C177.277 336.802 176.998 336.636 176.658 336.916C176.497 337.047 176.904 337.279 176.697 337.29Z" fill="#FFEDE2"/>
<path d="M185.965 328.53L179.574 335.645C180.522 338.611 181.731 339.47 184.638 340.106L185.965 338.901C187.171 337.815 189.655 334.849 189.944 331.665C190.233 328.482 187.412 328.249 185.965 328.53Z" fill="#D5E4F9"/>
<path d="M182.288 337.031C180.985 336.163 180.881 334.8 180.901 334.137H180.298C179.977 334.419 179.976 334.504 179.333 335.192C178.896 335.661 179.088 337.255 180.479 338.539C182.047 339.986 182.891 340.347 184.488 340.347C185.091 339.744 185.152 339.775 185.393 339.232C185.634 338.689 185.393 338.358 185.393 338.358C184.77 338.277 183.59 337.9 182.288 337.031Z" fill="#E6F0FF"/>
<path d="M194.943 324.712V318.924C192.543 317.492 191.542 317.893 190.119 319.889V325.255C192.404 326.565 193.48 326.299 194.943 324.712Z" fill="#FFEFE1"/>
<path d="M194.943 324.712V318.924C192.543 317.492 191.542 317.893 190.119 319.889V325.255C192.404 326.565 193.48 326.299 194.943 324.712Z" fill="url(#paint10_linear)" fill-opacity="0.5"/>
<path d="M177.448 339.869C176.76 339.349 176.162 338.416 176 337.73C176.207 337.457 176.179 337.488 176.503 337.375C177.279 337.987 177.158 338.566 177.868 339.572C177.856 339.808 177.758 339.97 177.448 339.869Z" fill="url(#paint11_linear)"/>
<path d="M178.053 339.392C177.365 338.873 176.931 337.924 176.531 337.139C176.738 336.866 176.71 336.897 177.034 336.784C177.81 337.396 177.688 337.975 178.399 338.981C178.563 339.213 178.407 339.546 178.053 339.392Z" fill="url(#paint12_linear)"/>
<path d="M178.933 338.361C178.384 337.782 178.158 336.774 177.889 336.033C178.099 335.847 178.072 335.867 178.367 335.841C178.983 336.516 178.761 337.097 179.278 338.089C179.256 338.327 179.138 338.458 178.933 338.361Z" fill="url(#paint13_linear)"/>
<path d="M178.706 338.931C178.018 338.412 177.584 337.463 177.184 336.678C177.391 336.404 177.363 336.435 177.687 336.323C178.463 336.935 178.341 337.513 179.052 338.52C179.175 338.775 179.019 339.026 178.706 338.931Z" fill="url(#paint14_linear)"/>
<path d="M195.466 310.877C197.206 312.505 197.074 315.781 196.552 317.509C194.2 320.946 194.388 320.348 191.306 322.333C189.9 323.238 189.26 323.709 187.854 322.624C187.01 321.147 186.724 318.233 186.503 314.374C186.26 310.135 188.935 310.274 190.04 309.852C190.964 309.651 193.597 309.129 195.466 310.877Z" fill="#FFEFE1"/>
<path d="M195.466 310.877C197.206 312.505 197.074 315.781 196.552 317.509C194.2 320.946 194.388 320.348 191.306 322.333C189.9 323.238 189.26 323.709 187.854 322.624C187.01 321.147 186.724 318.233 186.503 314.374C186.26 310.135 188.935 310.274 190.04 309.852C190.964 309.651 193.597 309.129 195.466 310.877Z" fill="url(#paint15_linear)" fill-opacity="0.5"/>
<path d="M188.152 314.339C187.851 313.609 186.503 314.015 186.503 314.015C186.503 314.015 186.317 313.444 186.317 312.621C186.317 311.798 186.567 310.003 189.099 309.272C191.632 308.541 194.795 309.272 196.525 311.589C197.601 312.496 197.13 316.373 196.905 317.016C196.68 317.658 195.112 320.012 194.985 321.003C194.626 321.953 194.356 322.177 193.782 322.354C193.209 322.53 191.145 322.565 190.546 320.564C189.883 319.72 191.741 316.814 189.099 315.982C188.087 315.476 188.454 315.07 188.152 314.339Z" fill="#0A1D38"/>
<path d="M338.218 198.856C338.218 198.856 338.559 197.376 338.901 196.749C339.243 196.123 341.179 195.781 341.635 196.407C342.09 197.034 343.343 203.242 343.229 203.697C343.115 204.153 342.09 204.552 341.635 204.609C341.179 204.665 340.268 203.242 339.527 203.071C338.787 202.9 336.167 202.672 335.769 202.103C335.37 201.533 334.288 200.166 334.231 199.426C334.174 198.685 334.402 198.856 335.085 198.856H338.218Z" fill="#0A1D38"/>
<path d="M326.515 203.534C327.075 203.279 329.469 200.783 329.826 200.121C330.183 199.459 332.271 199.612 332.831 200.121C333.392 200.631 334.92 205.877 334.818 206.692C334.716 207.507 334.36 207.915 333.596 207.915C332.831 207.915 330.233 206.998 329.622 207.1C329.011 207.202 327.483 207.66 326.515 207.507C325.547 207.355 321.268 205.113 321.013 204.706C320.759 204.298 321.268 203.534 321.625 203.279C321.981 203.025 325.955 203.789 326.515 203.534Z" fill="#0A1D38"/>
<path d="M337.322 197.869C334.285 185.736 333.07 180.11 331.473 172.086L330.518 165.163L337.322 160.507C338.734 176.597 339.229 183.592 342.216 195.959C341.365 198.902 340.109 198.937 337.322 197.869Z" fill="#FBDFB6"/>
<path d="M327.892 202.643L325.385 168.982L336.009 163.611C336.685 167.2 337.108 168.974 336.009 172.563C334.767 175.147 334.457 175.07 333.264 177.696C332.07 180.322 333.264 201.808 333.264 201.808C331.847 203.75 330.7 204.003 327.892 202.643Z" fill="#FBDFB6"/>
<path d="M334.157 141.622C330.135 144.157 326.722 146.874 325.023 149.142C323.323 151.41 324.1 160.104 325.023 169.314C325.2 169.911 326.212 171.057 328.846 170.866C331.481 170.675 335.892 166.649 337.769 164.659L337.238 160.243C337.91 158.094 339.49 152.245 340.424 146.038C341.359 139.831 336.636 140.508 334.157 141.622Z" fill="#1F2E45"/>
<path d="M317.496 159.141C317.892 158.15 319.311 156.556 321.435 154.784C323.559 153.012 326.49 154.786 325.482 156.741C324.474 158.696 320.993 160.547 319.606 161.241C318.22 161.934 317.1 160.133 317.496 159.141Z" fill="#FFEFE1"/>
<path d="M317.496 159.141C317.892 158.15 319.311 156.556 321.435 154.784C323.559 153.012 326.49 154.786 325.482 156.741C324.474 158.696 320.993 160.547 319.606 161.241C318.22 161.934 317.1 160.133 317.496 159.141Z" fill="url(#paint16_linear)" fill-opacity="0.5"/>
<path d="M316.69 157.004C316.466 157.016 316.16 157.175 316.16 157.175L317.954 158.612L320.438 155.527C320.438 155.527 319.321 154.998 317.944 155.596C317.944 155.596 317.993 155.78 317.933 155.905C317.853 156.071 317.745 155.902 317.378 156.112C317.235 156.194 317.531 156.282 317.409 156.391C317.264 156.52 316.988 156.357 316.651 156.633C316.492 156.763 316.895 156.992 316.69 157.004Z" fill="#FFEDE2"/>
<path d="M325.864 148.332L319.537 155.375C320.476 158.311 321.672 159.161 324.551 159.792L325.864 158.598C327.057 157.524 329.516 154.587 329.803 151.436C330.089 148.285 327.296 148.054 325.864 148.332Z" fill="#1F2E45"/>
<path d="M322.224 156.748C320.935 155.888 320.831 154.539 320.851 153.883H320.255C319.936 154.161 319.935 154.246 319.3 154.927C318.867 155.391 319.057 156.969 320.434 158.24C321.985 159.672 322.821 160.03 324.402 160.03C324.999 159.433 325.059 159.463 325.298 158.926C325.536 158.389 325.298 158.061 325.298 158.061C324.681 157.981 323.513 157.607 322.224 156.748Z" fill="#1F2E45"/>
<path d="M334.751 144.553V138.824C332.376 137.406 331.385 137.803 329.976 139.779V145.09C332.238 146.387 333.303 146.124 334.751 144.553Z" fill="#FFEFE1"/>
<path d="M334.751 144.553V138.824C332.376 137.406 331.385 137.803 329.976 139.779V145.09C332.238 146.387 333.303 146.124 334.751 144.553Z" fill="url(#paint17_linear)" fill-opacity="0.5"/>
<path d="M317.434 159.556C316.752 159.042 316.16 158.118 316 157.44C316.205 157.169 316.178 157.2 316.498 157.088C317.266 157.694 317.146 158.267 317.849 159.263C317.837 159.496 317.74 159.657 317.434 159.556Z" fill="url(#paint18_linear)"/>
<path d="M318.033 159.085C317.351 158.571 316.922 157.632 316.525 156.854C316.73 156.584 316.703 156.615 317.023 156.503C317.792 157.109 317.671 157.681 318.375 158.678C318.537 158.907 318.383 159.237 318.033 159.085Z" fill="url(#paint19_linear)"/>
<path d="M318.903 158.064C318.36 157.491 318.136 156.493 317.87 155.759C318.078 155.575 318.051 155.595 318.343 155.569C318.953 156.237 318.733 156.813 319.245 157.795C319.223 158.03 319.106 158.16 318.903 158.064Z" fill="url(#paint20_linear)"/>
<path d="M318.679 158.628C317.998 158.114 317.568 157.175 317.172 156.398C317.377 156.127 317.349 156.158 317.67 156.046C318.438 156.652 318.318 157.225 319.021 158.221C319.142 158.474 318.988 158.722 318.679 158.628Z" fill="url(#paint21_linear)"/>
<path d="M335.269 130.858C336.992 132.469 336.861 135.712 336.344 137.423C334.016 140.825 334.202 140.234 331.151 142.198C329.76 143.094 329.126 143.56 327.734 142.486C326.898 141.024 326.616 138.139 326.397 134.32C326.156 130.124 328.804 130.261 329.898 129.844C330.813 129.645 333.419 129.127 335.269 130.858Z" fill="#FFEFE1"/>
<path d="M335.269 130.858C336.992 132.469 336.861 135.712 336.344 137.423C334.016 140.825 334.202 140.234 331.151 142.198C329.76 143.094 329.126 143.56 327.734 142.486C326.898 141.024 326.616 138.139 326.397 134.32C326.156 130.124 328.804 130.261 329.898 129.844C330.813 129.645 333.419 129.127 335.269 130.858Z" fill="url(#paint22_linear)" fill-opacity="0.5"/>
<path d="M327.366 135.288C326.999 134.763 326.397 133.964 326.397 133.964C326.397 133.964 326.213 133.399 326.213 132.584C326.213 131.769 326.46 129.993 328.967 129.269C331.474 128.546 334.605 129.269 336.318 131.563C337.383 132.461 336.916 136.298 336.693 136.935C336.47 137.571 334.918 139.9 334.793 140.882C334.438 141.822 334.17 142.044 333.602 142.219C333.034 142.393 330.992 142.427 330.399 140.447C329.743 139.612 327.366 139.181 327.366 135.288Z" fill="#FEC16B"/>
<path d="M303.861 195.354C303.711 194.512 304.324 191.386 304.364 190.951C304.404 190.516 306.158 190.19 306.674 190.434C307.191 190.679 308.536 194.049 309.284 194.675C310.032 195.3 313.401 196.414 313.443 196.849C313.484 197.284 313.32 197.61 312.872 197.801C312.424 197.991 308.415 197.556 307.721 197.311C307.028 197.067 306.199 195.952 306.199 195.952L305.534 196.224C305.221 196.224 304.473 195.925 303.861 195.354Z" fill="#0A1D38"/>
<path d="M293.974 194.42C294.09 193.605 294.478 191.51 295.06 189.881C296.224 189.881 297.174 189.59 297.815 189.881C298.338 190.463 299.444 194.536 300.026 195.351C300.608 196.166 303.634 198.61 303.867 199.25C303.517 199.715 303.478 199.79 302.78 200.256C301.849 200.372 298.703 199.25 297.815 198.668C296.927 198.086 296.202 196.342 296.202 196.342C296.202 196.342 295.713 196.015 295.371 196.689C294.439 195.758 293.857 195.235 293.974 194.42Z" fill="#0A1D38"/>
<path d="M302.588 159.786C304.397 159.832 308.574 159.515 308.815 159.786C309.056 160.058 308.89 162.636 308.815 164.445C308.739 166.255 308.378 177.366 308.423 177.487C308.468 177.608 308.423 192.896 308.423 192.896C308.423 192.896 304.307 194.66 303.9 191.916C303.9 191.916 303.342 181.377 303.266 180.035C303.191 178.693 303.387 175.979 303.387 175.979L302.317 168.169C302.317 168.169 301.141 176.688 300.779 177.517C300.417 178.346 299.799 183.488 299.678 185.101C299.557 186.714 298.909 193.228 298.909 193.228C298.909 193.228 295.713 194.524 294.28 193.228C294.28 193.228 294.235 182.674 294.703 180.668C295.17 178.663 295.848 176.1 295.848 175.557C295.848 175.014 295.456 164.822 295.456 164.822L295.064 160.48C295.064 160.495 298.804 159.711 302.588 159.786Z" fill="#0046AA"/>
<path d="M310.353 143.682C310.068 143.804 309.22 145.43 309.22 145.43C309.22 145.43 310.894 149.208 311.467 149.828C312.04 150.447 312.452 150.716 313.065 150.506C313.678 150.296 314.614 150.028 314.947 149.592C315.279 149.157 318.74 140.069 318.74 140.069C318.74 140.069 317.823 140.445 317.133 140.222C316.444 140 316.017 139.578 316.017 139.578C316.017 139.578 313.84 145.008 313.223 145.551L311.472 142.523L310.353 143.682Z" fill="#FFECE1"/>
<path d="M316.02 140.746C315.447 140.146 315.406 139.098 315.945 138.459C316.383 137.933 317.143 137.624 317.277 136.968C317.329 136.757 317.296 136.521 317.389 136.332C317.483 136.144 317.787 136.008 317.918 136.194C317.978 136.282 317.973 136.41 317.957 136.527C317.893 137.036 317.808 137.545 317.744 138.055C318.481 138.032 319.069 137.491 319.633 137.035C320.317 136.487 321.064 135.985 321.828 135.569C322.003 135.47 322.231 135.383 322.375 135.517C322.488 135.618 322.491 135.799 322.422 135.925C322.352 136.05 322.241 136.152 322.12 136.243C321.425 136.779 320.731 137.316 320.015 137.851C320.092 138.046 320.394 137.952 320.57 137.832C321.197 137.399 321.842 137.01 322.519 136.654C322.737 136.535 323.051 136.431 323.214 136.63C323.326 136.752 323.307 136.954 323.215 137.1C323.124 137.245 322.981 137.335 322.85 137.415C322.126 137.876 321.392 138.346 320.668 138.807C320.735 138.991 320.993 138.938 321.167 138.86C321.775 138.608 322.384 138.335 322.993 138.083C323.188 138.005 323.468 137.953 323.545 138.148C323.603 138.279 323.49 138.424 323.391 138.515C322.626 139.198 321.438 139.287 320.713 140.014C321.454 140.174 322.293 139.504 322.948 139.905C322.356 140.532 321.403 140.609 320.58 140.895C319.909 141.122 319.317 141.503 318.656 141.742C317.995 141.981 317.214 142.044 316.621 141.667C316.071 141.314 315.82 140.663 315.611 140.056" fill="#FFECE1"/>
<path d="M301.577 134.654L297.983 135.56C297.983 135.56 295.288 136.451 294.091 137.649C292.893 138.846 295.306 140.839 296.011 143.73C296.7 146.619 296.042 150.538 295.782 151.891C295.521 153.258 295.288 156.513 295.288 156.513C295.288 156.513 295.07 160.528 294.961 161.304C294.961 161.304 305.599 164.771 308.894 161.304L309.662 143.73C309.662 143.73 309.362 141.841 308.894 139.425L308.409 135.571L305.797 135.183L301.577 134.654Z" fill="#001C46"/>
<path d="M307.279 135.786C307.333 135.549 308.117 135.482 308.428 135.559C309.027 135.559 309.997 136.439 310.524 138.554C311.05 140.669 313.042 144.196 313.042 144.196C313.042 144.196 311.609 146.944 309.051 146.758L308.464 143.758C308.462 143.773 306.949 137.086 307.279 135.786Z" fill="#001C46"/>
<path d="M292.857 164.777C292.632 164.754 292.405 164.897 292.266 165.08C292.139 165.279 292.086 165.501 292.046 165.74C291.904 166.543 291.849 167.371 291.871 168.192C291.883 168.527 291.922 168.879 292.057 169.196C292.191 169.513 292.451 169.782 292.775 169.876C292.794 170.136 292.859 170.385 292.971 170.624C293.057 170.829 293.188 171.025 293.407 171.108C293.611 171.189 293.896 171.067 293.919 170.842C294.01 171.139 294.132 171.424 294.286 171.698C294.324 171.777 294.377 171.843 294.448 171.896C294.632 172.021 294.907 171.852 294.988 171.648C295.07 171.444 295.004 171.195 294.951 170.978C294.804 170.341 294.721 169.666 294.727 169.015C294.891 168.895 295.06 169.17 295.085 169.37C295.163 169.938 295.257 170.509 295.335 171.078C295.388 171.447 295.553 171.903 295.918 171.895C296.431 170.432 295.53 168.87 295.568 167.312C295.575 167.101 295.679 166.824 295.889 166.845C296.04 167.3 296.188 167.77 296.324 168.223C296.418 168.491 296.641 168.832 296.896 168.706C296.858 168.187 296.79 167.665 296.691 167.155C296.519 166.167 296.202 165.119 295.416 164.508C295.318 164.422 295.205 164.35 295.071 164.321C294.924 164.276 294.773 164.276 294.62 164.29C293.934 164.326 293.248 164.514 292.64 164.83" fill="#FFECE1"/>
<path d="M294.43 144.22C293.815 144.157 292.74 143.85 292.533 144.693C292.324 145.55 291.443 152.977 291.411 153.732C291.379 154.486 292.124 163.944 292.305 164.993C292.485 166.042 293.902 165.823 293.902 165.823C293.902 165.823 294.982 165.782 295.031 164.272C295.078 162.776 294.611 160.819 294.673 159.476C294.734 158.134 294.775 154.182 294.939 153.759C295.104 153.337 296.816 144.752 296.816 144.752L294.43 144.22Z" fill="#FFECE1"/>
<path d="M295.048 137.584C294.314 137.357 293.046 138.486 292.712 139.088C292.377 139.69 291.964 140.921 292.056 142.386C292.147 143.865 291.486 149.147 291.486 149.147C291.486 149.147 294.876 150.525 296.474 150.021C296.474 150.021 296.951 145.357 297.027 144.607C297.104 143.857 298.089 138.532 295.048 137.584Z" fill="#001C46"/>
<path d="M300.145 132.649C300.145 132.649 300.434 134.861 298.485 136.132C298.485 136.132 300.253 137.814 302.574 137.945C304.896 138.061 305.546 136.748 305.665 136.473C305.767 136.21 305.797 135.183 305.797 135.183L303.972 133.157L300.145 132.649Z" fill="#FBE6D9"/>
<path d="M297.351 127.976C297.186 127.483 296.134 124.606 299.363 123.257C302.59 121.894 304.356 123.827 304.356 123.827C304.356 123.827 305.678 125.033 305.802 126.996C305.802 126.996 306.113 129.297 306.229 129.767C306.342 130.223 305.979 133.63 304.795 134.279C303.611 134.927 300.884 133.701 300.3 132.949C299.686 132.202 298.058 130.066 297.351 127.976Z" fill="#FFECE1"/>
<path d="M302.356 125.506C302.964 125.453 305.589 124.513 306.153 123.954C306.718 123.395 307.45 122.413 307.45 122.413C306.846 122.585 306.517 122.66 306.031 122.535L306.45 121.478C306.45 121.478 306.472 121.731 304.728 121.626C302.983 121.521 300.322 121.444 299.178 121.798C298.034 122.151 295.984 124.421 296.029 125.54C296.074 126.659 296.685 129.006 297.105 129.735C297.525 130.465 300.146 133.047 300.146 133.047C300.146 133.047 301.057 129.395 300.953 128.179C300.848 126.963 300.734 125.645 300.734 125.645C300.734 125.645 301.748 125.558 302.356 125.506Z" fill="#0A1D38"/>
<path d="M306.21 125.287C306.108 124.372 305.599 123.456 305.599 123.456L304.124 123.914C305.323 124.99 305.633 125.888 305.955 127.678C305.955 127.678 306.311 126.203 306.21 125.287Z" fill="#0A1D38"/>
</g>
<defs>
<filter id="filter0_dddddd" x="456.173" y="295.78" width="29.0482" height="39.7679" filterUnits="userSpaceOnUse" color-interpolation-filters="sRGB">
<feFlood flood-opacity="0" result="BackgroundImageFix"/>
<feColorMatrix in="SourceAlpha" type="matrix" values="0 0 0 0 0 0 0 0 0 0 0 0 0 0 0 0 0 0 127 0"/>
<feOffset dy="0.191084"/>
<feGaussianBlur stdDeviation="0.0764337"/>
<feColorMatrix type="matrix" values="0 0 0 0 0.0901961 0 0 0 0 0.231373 0 0 0 0 0.537255 0 0 0 0.0196802 0"/>
<feBlend mode="normal" in2="BackgroundImageFix" result="effect1_dropShadow"/>
<feColorMatrix in="SourceAlpha" type="matrix" values="0 0 0 0 0 0 0 0 0 0 0 0 0 0 0 0 0 0 127 0"/>
<feOffset dy="0.459202"/>
<feGaussianBlur stdDeviation="0.183681"/>
<feColorMatrix type="matrix" values="0 0 0 0 0.0901961 0 0 0 0 0.231373 0 0 0 0 0.537255 0 0 0 0.0282725 0"/>
<feBlend mode="normal" in2="effect1_dropShadow" result="effect2_dropShadow"/>
<feColorMatrix in="SourceAlpha" type="matrix" values="0 0 0 0 0 0 0 0 0 0 0 0 0 0 0 0 0 0 127 0"/>
<feOffset dy="0.864636"/>
<feGaussianBlur stdDeviation="0.345854"/>
<feColorMatrix type="matrix" values="0 0 0 0 0.0901961 0 0 0 0 0.231373 0 0 0 0 0.537255 0 0 0 0.035 0"/>
<feBlend mode="normal" in2="effect2_dropShadow" result="effect3_dropShadow"/>
<feColorMatrix in="SourceAlpha" type="matrix" values="0 0 0 0 0 0 0 0 0 0 0 0 0 0 0 0 0 0 127 0"/>
<feOffset dy="1.54236"/>
<feGaussianBlur stdDeviation="0.616945"/>
<feColorMatrix type="matrix" values="0 0 0 0 0.0901961 0 0 0 0 0.231373 0 0 0 0 0.537255 0 0 0 0.0417275 0"/>
<feBlend mode="normal" in2="effect3_dropShadow" result="effect4_dropShadow"/>
<feColorMatrix in="SourceAlpha" type="matrix" values="0 0 0 0 0 0 0 0 0 0 0 0 0 0 0 0 0 0 127 0"/>
<feOffset dy="2.88482"/>
<feGaussianBlur stdDeviation="1.15393"/>
<feColorMatrix type="matrix" values="0 0 0 0 0.0901961 0 0 0 0 0.231373 0 0 0 0 0.537255 0 0 0 0.0503198 0"/>
<feBlend mode="normal" in2="effect4_dropShadow" result="effect5_dropShadow"/>
<feColorMatrix in="SourceAlpha" type="matrix" values="0 0 0 0 0 0 0 0 0 0 0 0 0 0 0 0 0 0 127 0"/>
<feOffset dy="6.90518"/>
<feGaussianBlur stdDeviation="2.76207"/>
<feColorMatrix type="matrix" values="0 0 0 0 0.0901961 0 0 0 0 0.231373 0 0 0 0 0.537255 0 0 0 0.07 0"/>
<feBlend mode="normal" in2="effect5_dropShadow" result="effect6_dropShadow"/>
<feBlend mode="normal" in="SourceGraphic" in2="effect6_dropShadow" result="shape"/>
</filter>
<filter id="filter1_dddddd" x="481.499" y="306.471" width="29.7222" height="40.8996" filterUnits="userSpaceOnUse" color-interpolation-filters="sRGB">
<feFlood flood-opacity="0" result="BackgroundImageFix"/>
<feColorMatrix in="SourceAlpha" type="matrix" values="0 0 0 0 0 0 0 0 0 0 0 0 0 0 0 0 0 0 127 0"/>
<feOffset dy="0.191084"/>
<feGaussianBlur stdDeviation="0.0764337"/>
<feColorMatrix type="matrix" values="0 0 0 0 0.0901961 0 0 0 0 0.231373 0 0 0 0 0.537255 0 0 0 0.0196802 0"/>
<feBlend mode="normal" in2="BackgroundImageFix" result="effect1_dropShadow"/>
<feColorMatrix in="SourceAlpha" type="matrix" values="0 0 0 0 0 0 0 0 0 0 0 0 0 0 0 0 0 0 127 0"/>
<feOffset dy="0.459202"/>
<feGaussianBlur stdDeviation="0.183681"/>
<feColorMatrix type="matrix" values="0 0 0 0 0.0901961 0 0 0 0 0.231373 0 0 0 0 0.537255 0 0 0 0.0282725 0"/>
<feBlend mode="normal" in2="effect1_dropShadow" result="effect2_dropShadow"/>
<feColorMatrix in="SourceAlpha" type="matrix" values="0 0 0 0 0 0 0 0 0 0 0 0 0 0 0 0 0 0 127 0"/>
<feOffset dy="0.864636"/>
<feGaussianBlur stdDeviation="0.345854"/>
<feColorMatrix type="matrix" values="0 0 0 0 0.0901961 0 0 0 0 0.231373 0 0 0 0 0.537255 0 0 0 0.035 0"/>
<feBlend mode="normal" in2="effect2_dropShadow" result="effect3_dropShadow"/>
<feColorMatrix in="SourceAlpha" type="matrix" values="0 0 0 0 0 0 0 0 0 0 0 0 0 0 0 0 0 0 127 0"/>
<feOffset dy="1.54236"/>
<feGaussianBlur stdDeviation="0.616945"/>
<feColorMatrix type="matrix" values="0 0 0 0 0.0901961 0 0 0 0 0.231373 0 0 0 0 0.537255 0 0 0 0.0417275 0"/>
<feBlend mode="normal" in2="effect3_dropShadow" result="effect4_dropShadow"/>
<feColorMatrix in="SourceAlpha" type="matrix" values="0 0 0 0 0 0 0 0 0 0 0 0 0 0 0 0 0 0 127 0"/>
<feOffset dy="2.88482"/>
<feGaussianBlur stdDeviation="1.15393"/>
<feColorMatrix type="matrix" values="0 0 0 0 0.0901961 0 0 0 0 0.231373 0 0 0 0 0.537255 0 0 0 0.0503198 0"/>
<feBlend mode="normal" in2="effect4_dropShadow" result="effect5_dropShadow"/>
<feColorMatrix in="SourceAlpha" type="matrix" values="0 0 0 0 0 0 0 0 0 0 0 0 0 0 0 0 0 0 127 0"/>
<feOffset dy="6.90518"/>
<feGaussianBlur stdDeviation="2.76207"/>
<feColorMatrix type="matrix" values="0 0 0 0 0.0901961 0 0 0 0 0.231373 0 0 0 0 0.537255 0 0 0 0.07 0"/>
<feBlend mode="normal" in2="effect5_dropShadow" result="effect6_dropShadow"/>
<feBlend mode="normal" in="SourceGraphic" in2="effect6_dropShadow" result="shape"/>
</filter>
<filter id="filter2_dddddd" x="475.476" y="225.638" width="29.0482" height="39.768" filterUnits="userSpaceOnUse" color-interpolation-filters="sRGB">
<feFlood flood-opacity="0" result="BackgroundImageFix"/>
<feColorMatrix in="SourceAlpha" type="matrix" values="0 0 0 0 0 0 0 0 0 0 0 0 0 0 0 0 0 0 127 0"/>
<feOffset dy="0.191084"/>
<feGaussianBlur stdDeviation="0.0764337"/>
<feColorMatrix type="matrix" values="0 0 0 0 0.0901961 0 0 0 0 0.231373 0 0 0 0 0.537255 0 0 0 0.0196802 0"/>
<feBlend mode="normal" in2="BackgroundImageFix" result="effect1_dropShadow"/>
<feColorMatrix in="SourceAlpha" type="matrix" values="0 0 0 0 0 0 0 0 0 0 0 0 0 0 0 0 0 0 127 0"/>
<feOffset dy="0.459202"/>
<feGaussianBlur stdDeviation="0.183681"/>
<feColorMatrix type="matrix" values="0 0 0 0 0.0901961 0 0 0 0 0.231373 0 0 0 0 0.537255 0 0 0 0.0282725 0"/>
<feBlend mode="normal" in2="effect1_dropShadow" result="effect2_dropShadow"/>
<feColorMatrix in="SourceAlpha" type="matrix" values="0 0 0 0 0 0 0 0 0 0 0 0 0 0 0 0 0 0 127 0"/>
<feOffset dy="0.864636"/>
<feGaussianBlur stdDeviation="0.345854"/>
<feColorMatrix type="matrix" values="0 0 0 0 0.0901961 0 0 0 0 0.231373 0 0 0 0 0.537255 0 0 0 0.035 0"/>
<feBlend mode="normal" in2="effect2_dropShadow" result="effect3_dropShadow"/>
<feColorMatrix in="SourceAlpha" type="matrix" values="0 0 0 0 0 0 0 0 0 0 0 0 0 0 0 0 0 0 127 0"/>
<feOffset dy="1.54236"/>
<feGaussianBlur stdDeviation="0.616945"/>
<feColorMatrix type="matrix" values="0 0 0 0 0.0901961 0 0 0 0 0.231373 0 0 0 0 0.537255 0 0 0 0.0417275 0"/>
<feBlend mode="normal" in2="effect3_dropShadow" result="effect4_dropShadow"/>
<feColorMatrix in="SourceAlpha" type="matrix" values="0 0 0 0 0 0 0 0 0 0 0 0 0 0 0 0 0 0 127 0"/>
<feOffset dy="2.88482"/>
<feGaussianBlur stdDeviation="1.15393"/>
<feColorMatrix type="matrix" values="0 0 0 0 0.0901961 0 0 0 0 0.231373 0 0 0 0 0.537255 0 0 0 0.0503198 0"/>
<feBlend mode="normal" in2="effect4_dropShadow" result="effect5_dropShadow"/>
<feColorMatrix in="SourceAlpha" type="matrix" values="0 0 0 0 0 0 0 0 0 0 0 0 0 0 0 0 0 0 127 0"/>
<feOffset dy="6.90518"/>
<feGaussianBlur stdDeviation="2.76207"/>
<feColorMatrix type="matrix" values="0 0 0 0 0.0901961 0 0 0 0 0.231373 0 0 0 0 0.537255 0 0 0 0.07 0"/>
<feBlend mode="normal" in2="effect5_dropShadow" result="effect6_dropShadow"/>
<feBlend mode="normal" in="SourceGraphic" in2="effect6_dropShadow" result="shape"/>
</filter>
<filter id="filter3_dddddd" x="511.802" y="245.162" width="104.559" height="82.3542" filterUnits="userSpaceOnUse" color-interpolation-filters="sRGB">
<feFlood flood-opacity="0" result="BackgroundImageFix"/>
<feColorMatrix in="SourceAlpha" type="matrix" values="0 0 0 0 0 0 0 0 0 0 0 0 0 0 0 0 0 0 127 0"/>
<feOffset dy="0.191084"/>
<feGaussianBlur stdDeviation="0.0764337"/>
<feColorMatrix type="matrix" values="0 0 0 0 0.0901961 0 0 0 0 0.231373 0 0 0 0 0.537255 0 0 0 0.0196802 0"/>
<feBlend mode="normal" in2="BackgroundImageFix" result="effect1_dropShadow"/>
<feColorMatrix in="SourceAlpha" type="matrix" values="0 0 0 0 0 0 0 0 0 0 0 0 0 0 0 0 0 0 127 0"/>
<feOffset dy="0.459202"/>
<feGaussianBlur stdDeviation="0.183681"/>
<feColorMatrix type="matrix" values="0 0 0 0 0.0901961 0 0 0 0 0.231373 0 0 0 0 0.537255 0 0 0 0.0282725 0"/>
<feBlend mode="normal" in2="effect1_dropShadow" result="effect2_dropShadow"/>
<feColorMatrix in="SourceAlpha" type="matrix" values="0 0 0 0 0 0 0 0 0 0 0 0 0 0 0 0 0 0 127 0"/>
<feOffset dy="0.864636"/>
<feGaussianBlur stdDeviation="0.345854"/>
<feColorMatrix type="matrix" values="0 0 0 0 0.0901961 0 0 0 0 0.231373 0 0 0 0 0.537255 0 0 0 0.035 0"/>
<feBlend mode="normal" in2="effect2_dropShadow" result="effect3_dropShadow"/>
<feColorMatrix in="SourceAlpha" type="matrix" values="0 0 0 0 0 0 0 0 0 0 0 0 0 0 0 0 0 0 127 0"/>
<feOffset dy="1.54236"/>
<feGaussianBlur stdDeviation="0.616945"/>
<feColorMatrix type="matrix" values="0 0 0 0 0.0901961 0 0 0 0 0.231373 0 0 0 0 0.537255 0 0 0 0.0417275 0"/>
<feBlend mode="normal" in2="effect3_dropShadow" result="effect4_dropShadow"/>
<feColorMatrix in="SourceAlpha" type="matrix" values="0 0 0 0 0 0 0 0 0 0 0 0 0 0 0 0 0 0 127 0"/>
<feOffset dy="2.88482"/>
<feGaussianBlur stdDeviation="1.15393"/>
<feColorMatrix type="matrix" values="0 0 0 0 0.0901961 0 0 0 0 0.231373 0 0 0 0 0.537255 0 0 0 0.0503198 0"/>
<feBlend mode="normal" in2="effect4_dropShadow" result="effect5_dropShadow"/>
<feColorMatrix in="SourceAlpha" type="matrix" values="0 0 0 0 0 0 0 0 0 0 0 0 0 0 0 0 0 0 127 0"/>
<feOffset dy="6.90518"/>
<feGaussianBlur stdDeviation="2.76207"/>
<feColorMatrix type="matrix" values="0 0 0 0 0.0901961 0 0 0 0 0.231373 0 0 0 0 0.537255 0 0 0 0.07 0"/>
<feBlend mode="normal" in2="effect5_dropShadow" result="effect6_dropShadow"/>
<feBlend mode="normal" in="SourceGraphic" in2="effect6_dropShadow" result="shape"/>
</filter>
<linearGradient id="paint0_linear" x1="557.197" y1="314.309" x2="534.609" y2="441.768" gradientUnits="userSpaceOnUse">
<stop stop-color="#D0E1FF"/>
<stop offset="1" stop-color="#6FAAFF"/>
</linearGradient>
<linearGradient id="paint1_linear" x1="218.011" y1="-4.95525" x2="165.507" y2="114.446" gradientUnits="userSpaceOnUse">
<stop stop-color="#0069FF"/>
<stop offset="1" stop-color="#0069FF" stop-opacity="0"/>
</linearGradient>
<linearGradient id="paint2_linear" x1="571.697" y1="316.809" x2="521.296" y2="427.889" gradientUnits="userSpaceOnUse">
<stop stop-color="#4A8AFD"/>
<stop offset="1" stop-color="#4A8AFD" stop-opacity="0"/>
</linearGradient>
<linearGradient id="paint3_linear" x1="436.697" y1="337.898" x2="428.657" y2="351.822" gradientUnits="userSpaceOnUse">
<stop stop-color="#FEC16B"/>
<stop offset="1" stop-color="#FEC16B" stop-opacity="0"/>
</linearGradient>
<linearGradient id="paint4_linear" x1="218.011" y1="-4.95525" x2="165.507" y2="114.446" gradientUnits="userSpaceOnUse">
<stop stop-color="#0069FF"/>
<stop offset="1" stop-color="#0069FF" stop-opacity="0"/>
</linearGradient>
<linearGradient id="paint5_linear" x1="436.697" y1="204.898" x2="428.657" y2="218.822" gradientUnits="userSpaceOnUse">
<stop stop-color="#FEC16B"/>
<stop offset="1" stop-color="#FEC16B" stop-opacity="0"/>
</linearGradient>
<linearGradient id="paint6_linear" x1="192.347" y1="257.477" x2="192.347" y2="18" gradientUnits="userSpaceOnUse">
<stop stop-color="#FFC3C3"/>
<stop offset="1" stop-color="#26F2FF" stop-opacity="0"/>
</linearGradient>
<linearGradient id="paint7_linear" x1="356.43" y1="310.661" x2="369.005" y2="307.909" gradientUnits="userSpaceOnUse">
<stop stop-color="#FFC4C0"/>
<stop offset="1" stop-color="white" stop-opacity="0"/>
</linearGradient>
<linearGradient id="paint8_linear" x1="347.426" y1="316.531" x2="357.281" y2="315.476" gradientUnits="userSpaceOnUse">
<stop stop-color="#FFC4C0"/>
<stop offset="1" stop-color="white" stop-opacity="0"/>
</linearGradient>
<linearGradient id="paint9_linear" x1="176.986" y1="341.727" x2="184.349" y2="333.43" gradientUnits="userSpaceOnUse">
<stop stop-color="#FFC4C0"/>
<stop offset="1" stop-color="white" stop-opacity="0"/>
</linearGradient>
<linearGradient id="paint10_linear" x1="195.199" y1="326.091" x2="188.114" y2="321.83" gradientUnits="userSpaceOnUse">
<stop stop-color="#FFC4C0"/>
<stop offset="1" stop-color="white" stop-opacity="0"/>
</linearGradient>
<linearGradient id="paint11_linear" x1="177.594" y1="337.287" x2="177.552" y2="340.726" gradientUnits="userSpaceOnUse">
<stop stop-color="#FFE9DF"/>
<stop offset="1" stop-color="#FFB594"/>
</linearGradient>
<linearGradient id="paint12_linear" x1="177.594" y1="337.287" x2="177.552" y2="340.726" gradientUnits="userSpaceOnUse">
<stop stop-color="#FFE9DF"/>
<stop offset="1" stop-color="#FFB594"/>
</linearGradient>
<linearGradient id="paint13_linear" x1="177.594" y1="337.287" x2="177.552" y2="340.726" gradientUnits="userSpaceOnUse">
<stop stop-color="#FFE9DF"/>
<stop offset="1" stop-color="#FFB594"/>
</linearGradient>
<linearGradient id="paint14_linear" x1="177.594" y1="337.287" x2="177.552" y2="340.726" gradientUnits="userSpaceOnUse">
<stop stop-color="#FFE9DF"/>
<stop offset="1" stop-color="#FFB594"/>
</linearGradient>
<linearGradient id="paint15_linear" x1="197.45" y1="323.251" x2="184.3" y2="313.209" gradientUnits="userSpaceOnUse">
<stop stop-color="#FFC4C0"/>
<stop offset="1" stop-color="white" stop-opacity="0"/>
</linearGradient>
<linearGradient id="paint16_linear" x1="316.976" y1="161.396" x2="324.264" y2="153.183" gradientUnits="userSpaceOnUse">
<stop stop-color="#FFC4C0"/>
<stop offset="1" stop-color="white" stop-opacity="0"/>
</linearGradient>
<linearGradient id="paint17_linear" x1="335.005" y1="145.918" x2="327.992" y2="141.7" gradientUnits="userSpaceOnUse">
<stop stop-color="#FFC4C0"/>
<stop offset="1" stop-color="white" stop-opacity="0"/>
</linearGradient>
<linearGradient id="paint18_linear" x1="317.578" y1="157.001" x2="317.536" y2="160.405" gradientUnits="userSpaceOnUse">
<stop stop-color="#FFE9DF"/>
<stop offset="1" stop-color="#FFB594"/>
</linearGradient>
<linearGradient id="paint19_linear" x1="317.578" y1="157.001" x2="317.536" y2="160.405" gradientUnits="userSpaceOnUse">
<stop stop-color="#FFE9DF"/>
<stop offset="1" stop-color="#FFB594"/>
</linearGradient>
<linearGradient id="paint20_linear" x1="317.578" y1="157.001" x2="317.536" y2="160.405" gradientUnits="userSpaceOnUse">
<stop stop-color="#FFE9DF"/>
<stop offset="1" stop-color="#FFB594"/>
</linearGradient>
<linearGradient id="paint21_linear" x1="317.578" y1="157.001" x2="317.536" y2="160.405" gradientUnits="userSpaceOnUse">
<stop stop-color="#FFE9DF"/>
<stop offset="1" stop-color="#FFB594"/>
</linearGradient>
<linearGradient id="paint22_linear" x1="337.233" y1="143.107" x2="324.216" y2="133.166" gradientUnits="userSpaceOnUse">
<stop stop-color="#FFC4C0"/>
<stop offset="1" stop-color="white" stop-opacity="0"/>
</linearGradient>
<clipPath id="clip0">
<rect width="853" height="540" fill="white"/>
</clipPath>
</defs>
</svg>
